<svg width="22" height="22" viewBox="0 0 22 22" fill="none" xmlns="http://www.w3.org/2000/svg">
<path fill-rule="evenodd" clip-rule="evenodd" d="M20.0559 6.33199L12.4133 1.23723C11.9948 0.958332 11.5032 0.809509 11.0003 0.809509C10.4974 0.809509 10.0057 0.958332 9.58722 1.23723L1.94409 6.33199C1.59519 6.56479 1.30913 6.88009 1.11127 7.24992C0.913404 7.61976 0.809859 8.0327 0.809814 8.45214V18.6425C0.809748 19.3182 1.07809 19.9662 1.55582 20.444C2.03354 20.9219 2.68151 21.1903 3.35718 21.1904H18.6428C18.9774 21.1904 19.3087 21.1245 19.6178 20.9965C19.9269 20.8684 20.2077 20.6807 20.4443 20.4441C20.6808 20.2075 20.8685 19.9266 20.9965 19.6175C21.1244 19.3084 21.1903 18.9771 21.1902 18.6425V8.45214C21.1903 8.03268 21.0868 7.6197 20.8889 7.24985C20.691 6.87999 20.4049 6.56471 20.0559 6.33199ZM18.6428 18.6425H14.8215V12.2734H7.17853V18.6425H3.35718V8.45214L11.0002 3.35741L18.6428 8.45214V18.6425Z" fill="#C72037"/>
</svg>
