<svg width="24" height="24" viewBox="0 0 24 24" fill="none" xmlns="http://www.w3.org/2000/svg">
<path fill-rule="evenodd" clip-rule="evenodd" d="M21.0559 7.33199L13.4133 2.23723C12.9948 1.95833 12.5032 1.80951 12.0003 1.80951C11.4974 1.80951 11.0057 1.95833 10.5872 2.23723L2.94409 7.33199C2.59519 7.56479 2.30913 7.88009 2.11127 8.24992C1.9134 8.61976 1.80986 9.0327 1.80981 9.45214V19.6425C1.80975 20.3182 2.07809 20.9662 2.55582 21.444C3.03354 21.9219 3.68151 22.1903 4.35718 22.1904H19.6428C19.9774 22.1904 20.3087 22.1245 20.6178 21.9965C20.9269 21.8684 21.2077 21.6807 21.4443 21.4441C21.6808 21.2075 21.8685 20.9266 21.9965 20.6175C22.1244 20.3084 22.1903 19.9771 22.1902 19.6425V9.45214C22.1903 9.03268 22.0868 8.6197 21.8889 8.24985C21.691 7.87999 21.4049 7.56471 21.0559 7.33199ZM19.6428 19.6425H15.8215V13.2734H8.17853V19.6425H4.35718V9.45214L12.0002 4.35741L19.6428 9.45214V19.6425Z" fill="#808C92"/>
</svg>
