<svg width="20" height="20" viewBox="0 0 20 20" fill="none" xmlns="http://www.w3.org/2000/svg">
<path d="M18.185 0.0125122C18.1642 0.0108337 18.1467 0 18.125 0H9.16675C7.78842 0 6.66675 1.12167 6.66675 2.5V3.33328C6.66675 3.79333 7.03998 4.16672 7.50003 4.16672C7.96008 4.16672 8.33331 3.79333 8.33331 3.33328V2.5C8.33331 2.04086 8.70746 1.66672 9.16675 1.66672H13.0492L12.795 1.75171C12.1201 1.98502 11.6667 2.62085 11.6667 3.33328V15.8333H9.16675C8.70746 15.8333 8.33331 15.4591 8.33331 15V13.3333C8.33331 12.8734 7.96008 12.5 7.50003 12.5C7.03998 12.5 6.66675 12.8734 6.66675 13.3333V15C6.66675 16.3783 7.78842 17.5 9.16675 17.5H11.6667V18.3333C11.6667 19.2525 12.4141 20 13.3333 20C13.5117 20 13.6809 19.9742 13.8642 19.9174L18.8709 18.2483C19.5467 18.015 20 17.3792 20 16.6667V1.66672C20 0.695038 19.1625 -0.0666809 18.185 0.0125122Z" fill="#808C92"/>
<path d="M8.92242 7.74413L5.58914 4.41085C5.3508 4.17251 4.99252 4.10079 4.68079 4.23003C4.36996 4.35912 4.16672 4.66338 4.16672 4.99999V7.49999H0.833282C0.373383 7.49999 0 7.87338 0 8.33328C0 8.79333 0.373383 9.16671 0.833282 9.16671H4.16672V11.6667C4.16672 12.0033 4.36996 12.3074 4.68079 12.4367C4.99252 12.5658 5.3508 12.4942 5.58914 12.2559L8.92242 8.92242C9.24835 8.59664 9.24835 8.07006 8.92242 7.74413Z" fill="#808C92"/>
</svg>
