<svg width="24" height="24" viewBox="0 0 24 24" fill="none" xmlns="http://www.w3.org/2000/svg">
<path fill-rule="evenodd" clip-rule="evenodd" d="M18.3691 3.08301H16.7514C16.5283 2.69591 16.2072 2.37441 15.8203 2.15086C15.4335 1.92731 14.9946 1.8096 14.5478 1.80957H9.45258C9.00578 1.80953 8.56686 1.92722 8.18001 2.15078C7.79316 2.37433 7.47205 2.69587 7.249 3.08301H5.63129C4.95632 3.08492 4.30953 3.35384 3.83216 3.83103C3.3548 4.30823 3.08565 4.95492 3.0835 5.62989V19.6426C3.08544 20.3177 3.3545 20.9646 3.83188 21.442C4.30926 21.9194 4.95617 22.1884 5.63129 22.1904H18.3691C19.0441 22.1884 19.691 21.9193 20.1683 21.4419C20.6456 20.9645 20.9146 20.3176 20.9165 19.6426V5.62989C20.9144 4.95498 20.6453 4.30833 20.168 3.83115C19.6907 3.35397 19.044 3.08501 18.3691 3.08301ZM9.45258 4.35651H14.5478V5.62989H9.45258V4.35651ZM18.3691 19.6426H5.63129V5.62989H6.90479C6.90654 6.30516 7.17549 6.95229 7.65289 7.42988C8.13028 7.90747 8.7773 8.17669 9.45258 8.17872H14.5478C15.223 8.17661 15.8699 7.90735 16.3472 7.42976C16.8246 6.95218 17.0935 6.3051 17.0952 5.62989H18.3691V19.6426ZM14.5478 10.7256H9.45258C9.11534 10.7265 8.79223 10.8612 8.5541 11.1C8.31597 11.3388 8.18225 11.6622 8.18225 11.9995C8.18225 12.3367 8.31597 12.6602 8.5541 12.899C8.79223 13.1378 9.11534 13.2724 9.45258 13.2734H14.5478C14.7154 13.2738 14.8814 13.2412 15.0364 13.1774C15.1913 13.1136 15.3322 13.0199 15.4509 12.9015C15.5695 12.7832 15.6637 12.6426 15.7279 12.4878C15.7922 12.333 15.8253 12.1671 15.8253 11.9995C15.8253 11.8319 15.7922 11.6659 15.7279 11.5112C15.6637 11.3564 15.5695 11.2158 15.4509 11.0974C15.3322 10.9791 15.1913 10.8853 15.0364 10.8215C14.8814 10.7577 14.7154 10.7251 14.5478 10.7256ZM12 14.5479H9.45258C9.11486 14.5479 8.79097 14.6821 8.55216 14.9209C8.31335 15.1597 8.1792 15.4836 8.1792 15.8213C8.1792 16.159 8.31335 16.4829 8.55216 16.7217C8.79097 16.9605 9.11486 17.0947 9.45258 17.0947H12C12.1672 17.0947 12.3328 17.0617 12.4873 16.9978C12.6418 16.9338 12.7822 16.84 12.9004 16.7217C13.0187 16.6035 13.1125 16.4631 13.1764 16.3086C13.2404 16.1541 13.2734 15.9885 13.2734 15.8213C13.2734 15.6541 13.2404 15.4885 13.1764 15.334C13.1125 15.1795 13.0187 15.0391 12.9004 14.9209C12.7822 14.8026 12.6418 14.7088 12.4873 14.6449C12.3328 14.5809 12.1672 14.5479 12 14.5479Z" fill="#808C92"/>
</svg>
