<svg width="22" height="22" viewBox="0 0 22 22" fill="none" xmlns="http://www.w3.org/2000/svg">
<path fill-rule="evenodd" clip-rule="evenodd" d="M21.0527 17.8066C20.5594 16.4936 19.8031 15.2951 18.8304 14.2845C17.8576 13.274 16.6888 12.4727 15.3955 11.9296C16.0988 11.3523 16.6668 10.6276 17.0593 9.80664C17.4518 8.98569 17.6593 8.08856 17.6669 7.17863C17.6417 5.58394 17.0263 4.0552 15.9395 2.88785C14.8528 1.7205 13.372 0.99741 11.7831 0.858324C11.5237 0.82168 11.2619 0.805373 10.9999 0.809554C10.738 0.805377 10.4761 0.821683 10.2167 0.858324C8.62793 0.997422 7.14708 1.72052 6.06036 2.88787C4.97365 4.05522 4.35822 5.58396 4.333 7.17864C4.3407 8.08856 4.54813 8.98569 4.94063 9.80664C5.33313 10.6276 5.90112 11.3523 6.60448 11.9296C5.31118 12.4726 4.14236 13.274 3.1696 14.2845C2.19685 15.2951 1.44065 16.4936 0.947322 17.8066C0.808024 18.1904 0.766685 18.6029 0.827049 19.0067C0.887414 19.4105 1.04758 19.7929 1.29302 20.1191C1.54726 20.4543 1.87607 20.7256 2.25339 20.9115C2.63071 21.0975 3.04615 21.193 3.46679 21.1904H18.5332C18.9538 21.193 19.3693 21.0975 19.7466 20.9115C20.1239 20.7256 20.4528 20.4543 20.707 20.1191C20.9525 19.7929 21.1126 19.4105 21.173 19.0067C21.2334 18.6029 21.192 18.1904 21.0527 17.8066ZM10.587 3.38274C10.7236 3.36128 10.8618 3.3528 11 3.35741C11.1382 3.3528 11.2765 3.36128 11.4131 3.38274C12.3765 3.45471 13.2782 3.88381 13.9417 4.58597C14.6053 5.28813 14.9827 6.21274 15 7.17864C14.9886 7.69231 14.8761 8.1987 14.6689 8.66884C14.4616 9.13898 14.1637 9.56366 13.7922 9.91857C13.4207 10.2735 12.9829 10.5517 12.5038 10.7372C12.0247 10.9228 11.5137 11.012 11 10.9999C10.4863 11.0121 9.9753 10.9229 9.49615 10.7374C9.017 10.5519 8.57913 10.2737 8.20761 9.91874C7.83608 9.56382 7.53819 9.13911 7.33097 8.66894C7.12376 8.19876 7.01129 7.69233 7 7.17864C7.01738 6.21274 7.3948 5.28812 8.05831 4.58597C8.72183 3.88381 9.62362 3.45471 10.587 3.38274ZM3.46674 18.6425C4.05145 17.1254 5.08692 15.8237 6.43376 14.9129C7.7806 14.002 9.37416 13.5256 10.9999 13.5478C12.6257 13.5257 14.2192 14.0022 15.566 14.913C16.9129 15.8239 17.9483 17.1254 18.5331 18.6425H3.46674Z" fill="#C72037"/>
</svg>
