<svg width="159" height="24" viewBox="0 0 159 24" fill="none" xmlns="http://www.w3.org/2000/svg">
<path d="M32.3179 19.9082C30.904 19.9082 29.4881 19.3334 28.7591 18.6485C28.5009 18.4111 28.3477 18.0808 28.333 17.7304C28.3258 17.5569 28.3528 17.3836 28.4125 17.2206C28.4722 17.0575 28.5634 16.9078 28.681 16.7799C28.7985 16.6521 28.9401 16.5487 29.0976 16.4756C29.2552 16.4025 29.4256 16.3612 29.5991 16.3539C29.9495 16.3393 30.2914 16.4644 30.5495 16.7018C30.9501 17.0784 32.4281 17.587 33.2672 17.0343C33.3739 16.9702 33.4625 16.8799 33.5246 16.7719C33.5866 16.664 33.62 16.5419 33.6217 16.4175C33.6095 16.2782 33.557 16.1454 33.4706 16.0355C33.3842 15.9256 33.2675 15.8433 33.135 15.7986C32.9348 15.6885 32.5823 15.6885 32.1857 15.6885C31.5943 15.7101 31.0037 15.6267 30.4414 15.4421C29.8639 15.2343 29.3554 14.8702 28.9728 14.3903C28.5902 13.9105 28.3484 13.3337 28.2744 12.7244C28.2176 12.2211 28.2785 11.7114 28.4523 11.2357C28.626 10.7599 28.9079 10.3309 29.2758 9.98271C30.3733 8.96732 31.9855 8.80711 33.1571 9.00738C33.9384 9.11491 34.6699 9.45311 35.2579 9.9787C35.514 10.2143 35.6669 10.5413 35.6834 10.8889C35.6999 11.2364 35.5787 11.5765 35.346 11.8352C35.2035 11.9879 35.0275 12.1053 34.8318 12.1783C34.6361 12.2513 34.4262 12.2778 34.2185 12.2558C34.0144 12.2327 33.818 12.1643 33.6437 12.0555C33.3786 11.8291 33.059 11.6759 32.7165 11.6109C32.0516 11.5008 30.8139 11.5448 30.904 12.4941C30.9764 12.6926 31.1189 12.8578 31.3045 12.9588C31.603 13.0188 31.9078 13.041 32.2118 13.0248C32.7866 13.0469 33.5155 13.0469 34.2445 13.3793C34.8341 13.6411 35.3363 14.0665 35.6916 14.6049C36.0469 15.1434 36.2405 15.7724 36.2493 16.4175C36.2456 16.9777 36.1048 17.5286 35.8391 18.0219C35.5735 18.5152 35.191 18.9359 34.7252 19.2473C34.005 19.6989 33.1678 19.9288 32.3179 19.9082Z" fill="white"/>
<path d="M43.1266 19.822C42.0294 19.8177 40.9581 19.488 40.0483 18.8749C39.1384 18.2617 38.4308 17.3924 38.015 16.3771C37.5991 15.3618 37.4937 14.2459 37.712 13.1707C37.9304 12.0954 38.4626 11.109 39.2416 10.3363C40.0205 9.56354 41.011 9.03911 42.088 8.82933C43.1649 8.61955 44.2799 8.73384 45.2919 9.15774C46.3039 9.58163 47.1675 10.2961 47.7734 11.2108C48.3794 12.1255 48.7005 13.1993 48.6961 14.2965C48.6893 15.7675 48.0988 17.1756 47.0546 18.2116C46.0103 19.2476 44.5976 19.8268 43.1266 19.822ZM43.1266 11.4466C42.5667 11.4463 42.0193 11.6119 41.5536 11.9227C41.088 12.2335 40.725 12.6755 40.5105 13.1926C40.2961 13.7098 40.2399 14.279 40.349 14.8281C40.4581 15.3772 40.7277 15.8816 41.1236 16.2775C41.5194 16.6734 42.0239 16.9429 42.573 17.0521C43.1221 17.1612 43.6913 17.105 44.2084 16.8905C44.7256 16.6761 45.1675 16.3131 45.4783 15.8474C45.7891 15.3818 45.9548 14.8344 45.9544 14.2745C45.956 13.9025 45.884 13.5339 45.7425 13.1898C45.601 12.8458 45.3928 12.5332 45.1299 12.27C44.8671 12.0067 44.5548 11.7981 44.2109 11.6561C43.8671 11.5141 43.4986 11.4416 43.1266 11.4426V11.4466Z" fill="white"/>
<path d="M55.5695 19.822C54.4723 19.8177 53.4011 19.488 52.4912 18.8749C51.5814 18.2617 50.8738 17.3924 50.4579 16.3771C50.0421 15.3618 49.9366 14.2459 50.155 13.1707C50.3733 12.0954 50.9056 11.109 51.6845 10.3363C52.4634 9.56354 53.454 9.03911 54.5309 8.82933C55.6079 8.61955 56.7228 8.73384 57.7348 9.15774C58.7469 9.58163 59.6104 10.2961 60.2164 11.2108C60.8223 12.1255 61.1434 13.1993 61.1391 14.2965C61.1322 15.7675 60.5418 17.1756 59.4975 18.2116C58.4532 19.2476 57.0405 19.8268 55.5695 19.822ZM55.5695 11.4466C55.0096 11.4463 54.4622 11.6119 53.9966 11.9227C53.5309 12.2335 53.1679 12.6755 52.9535 13.1926C52.739 13.7098 52.6828 14.279 52.7919 14.8281C52.9011 15.3772 53.1706 15.8816 53.5665 16.2775C53.9624 16.6734 54.4668 16.9429 55.0159 17.0521C55.565 17.1612 56.1342 17.105 56.6514 16.8905C57.1685 16.6761 57.6105 16.3131 57.9213 15.8474C58.2321 15.3818 58.3977 14.8344 58.3974 14.2745C58.3989 13.9025 58.3269 13.5339 58.1854 13.1898C58.0439 12.8458 57.8357 12.5332 57.5729 12.27C57.31 12.0067 56.9977 11.7981 56.6539 11.6561C56.31 11.5141 55.9415 11.4416 55.5695 11.4426V11.4466Z" fill="white"/>
<path d="M67.3937 18.5143C67.395 18.6917 67.361 18.8677 67.2938 19.0319C67.2266 19.1962 67.1274 19.3454 67.002 19.471C66.8766 19.5966 66.7275 19.696 66.5633 19.7635C66.3992 19.831 66.2233 19.8652 66.0458 19.8641C65.5811 19.8552 65.1242 19.7427 64.7084 19.5348C64.2927 19.3269 63.9285 19.0289 63.6425 18.6625C62.9796 17.7993 63.0237 16.828 63.0237 15.7885V4.41308C63.0371 4.06749 63.1838 3.74051 63.433 3.50073C63.6823 3.26095 64.0147 3.12701 64.3605 3.12701C64.7064 3.12701 65.0388 3.26095 65.288 3.50073C65.5373 3.74051 65.684 4.06749 65.6973 4.41308V16.4174C65.6973 16.4835 65.6753 16.5496 65.6753 16.6177C65.6753 16.6858 65.6973 16.7499 65.6973 16.8179C65.6952 16.9147 65.7311 17.0084 65.7975 17.0788C65.8638 17.1493 65.9551 17.1908 66.0518 17.1945C66.4045 17.1923 66.7438 17.33 66.9952 17.5773C67.2467 17.8247 67.39 18.1615 67.3937 18.5143Z" fill="white"/>
<path d="M74.7316 18.4702C74.733 18.6447 74.6996 18.8177 74.6334 18.9791C74.5673 19.1406 74.4697 19.2873 74.3463 19.4106C74.2229 19.534 74.0762 19.6316 73.9148 19.6978C73.7533 19.7639 73.5803 19.7973 73.4058 19.796C73.214 19.7997 73.0221 19.7923 72.831 19.774C72.085 19.6799 71.3963 19.3252 70.8864 18.7726C70.4204 18.2125 70.1559 17.5122 70.1354 16.7839V11.2203H69.1841C68.8325 11.2203 68.4952 11.0806 68.2466 10.832C67.998 10.5834 67.8583 10.2461 67.8583 9.89452C67.8583 9.5429 67.998 9.20568 68.2466 8.95704C68.4952 8.7084 68.8325 8.56872 69.1841 8.56872H70.1354V4.34698C70.1354 3.99536 70.2751 3.65813 70.5237 3.4095C70.7723 3.16086 71.1096 3.02118 71.4612 3.02118C71.8128 3.02118 72.15 3.16086 72.3987 3.4095C72.6473 3.65813 72.787 3.99536 72.787 4.34698V8.56872H73.516C73.8676 8.56872 74.2048 8.7084 74.4535 8.95704C74.7021 9.20568 74.8418 9.5429 74.8418 9.89452C74.8418 10.2461 74.7021 10.5834 74.4535 10.832C74.2048 11.0806 73.8676 11.2203 73.516 11.2203H72.787V16.4815C72.831 16.6577 72.787 16.9241 72.9412 17.0563C73.0513 17.1664 73.2516 17.1444 73.4058 17.1444C73.7571 17.1454 74.0937 17.2855 74.3421 17.5339C74.5905 17.7823 74.7306 18.1189 74.7316 18.4702Z" fill="white"/>
<path d="M87.0203 10.0708V18.5363C87.0198 18.7035 86.9862 18.8689 86.9213 19.0229C86.8564 19.1769 86.7616 19.3166 86.6424 19.4337C86.5232 19.5509 86.382 19.6433 86.2268 19.7054C86.0717 19.7676 85.9057 19.7984 85.7386 19.796C85.0096 19.796 84.567 19.2213 84.567 18.5363V18.272C83.6407 19.1105 82.4359 19.5752 81.1864 19.5757C79.7709 19.5757 78.4133 19.0134 77.4124 18.0125C76.4115 17.0116 75.8492 15.654 75.8492 14.2385C75.8492 12.823 76.4115 11.4654 77.4124 10.4645C78.4133 9.46354 79.7709 8.90123 81.1864 8.90123C82.4297 8.91363 83.628 9.36797 84.567 10.183V10.0708C84.567 9.38588 85.0096 8.8111 85.7386 8.8111C85.9057 8.80872 86.0717 8.83951 86.2268 8.9017C86.382 8.96389 86.5232 9.05624 86.6424 9.1734C86.7616 9.29056 86.8564 9.4302 86.9213 9.58425C86.9862 9.73829 87.0198 9.90367 87.0203 10.0708ZM83.9482 14.2485C83.9545 13.6981 83.7969 13.1582 83.4955 12.6976C83.1941 12.237 82.7624 11.8765 82.2555 11.662C81.7485 11.4475 81.1892 11.3886 80.6487 11.493C80.1082 11.5974 79.611 11.8602 79.2204 12.248C78.8297 12.6358 78.5633 13.1311 78.455 13.6708C78.3467 14.2105 78.4015 14.7703 78.6123 15.2788C78.8231 15.7873 79.1804 16.2215 79.6388 16.5263C80.0972 16.8311 80.6359 16.9926 81.1864 16.9902C81.9141 16.9861 82.6112 16.6965 83.1276 16.1838C83.6441 15.6711 83.9387 14.9762 83.9482 14.2485Z" fill="white"/>
<path d="M99.5353 14.3145V18.4922C99.5353 18.8412 99.3967 19.1758 99.1499 19.4226C98.9032 19.6693 98.5685 19.808 98.2195 19.808C97.8706 19.808 97.5359 19.6693 97.2891 19.4226C97.0424 19.1758 96.9037 18.8412 96.9037 18.4922V14.3145C96.9037 12.7464 95.7562 11.4867 94.3623 11.4867C92.6379 11.4867 91.7587 13.211 91.7587 14.7351V18.4922C91.7587 18.8438 91.6191 19.181 91.3704 19.4297C91.1218 19.6783 90.7846 19.818 90.4329 19.818C90.0813 19.818 89.7441 19.6783 89.4955 19.4297C89.2468 19.181 89.1071 18.8438 89.1071 18.4922V10.0487C89.1082 9.6974 89.2482 9.36079 89.4966 9.11239C89.745 8.86398 90.0816 8.72396 90.4329 8.7229C90.7084 8.72473 90.9763 8.8134 91.1986 8.97628C91.4208 9.13915 91.586 9.36796 91.6706 9.63013C92.4727 9.10773 93.4091 8.82943 94.3663 8.82904C97.2102 8.83305 99.5353 11.2864 99.5353 14.3145Z" fill="white"/>
<path d="M103.99 15.8721V7.78619L107.162 7.50055V15.3448C107.162 16.6485 107.711 17.3004 108.81 17.3004C108.917 17.3004 109.003 17.2955 109.066 17.2857C109.759 17.2173 110.194 16.9854 110.37 16.5899C110.55 16.1749 110.641 15.711 110.641 15.1983V7.81549L113.834 7.52985V15.5279C113.834 17.0464 113.38 18.2012 112.472 18.9922C111.549 19.7979 110.372 20.2227 108.942 20.2667H108.722C107.843 20.2667 107.057 20.108 106.363 19.7906C105.983 19.6099 105.648 19.3926 105.36 19.1387C105.077 18.8848 104.83 18.587 104.62 18.2452C104.2 17.5665 103.99 16.7755 103.99 15.8721ZM115.218 19.8931L118.514 7.17096L122.381 15.0958L126.402 7.20026L129.603 19.8638L126.498 20.1348L125.487 14.7662L122.381 20.8526L119.371 14.7003L118.287 20.2374L115.218 19.8931ZM134.488 14.2681V19.8638L131.324 20.1641V7.81549L134.488 7.47125V13.0963L138.612 7.52985L141.703 8.37213L137.682 13.7115L141.805 19.4317L138.568 20.296L134.488 14.2681ZM142.845 19.8931L146.141 7.17096L150.008 15.0958L154.029 7.20026L157.23 19.8638L154.125 20.1348L153.114 14.7662L150.008 20.8526L146.998 14.7003L145.914 20.2374L142.845 19.8931Z" fill="white"/>
<path d="M5.52551 7.26862C5.52551 7.26862 3.96739 10.1305 8.89209 13.0525C8.89209 13.0525 4.98878 13.7334 4.00344 18.1274C3.40263 20.767 4.30986 22.3331 4.7785 22.9479C4.90267 23.1102 4.83057 23.1903 4.61828 23.1242C3.41665 22.7517 0 21.2857 0 16.6814C0 11.0978 5.52551 7.26862 5.52551 7.26862Z" fill="white"/>
<path d="M21.333 13.329C20.5581 10.6943 19.1743 8.27869 17.2935 6.27743H17.3156L17.604 6.24739C17.6353 6.24416 17.6656 6.23405 17.6926 6.21778C17.7196 6.20151 17.7427 6.17948 17.7602 6.15326C17.8401 6.17329 17.9221 6.18338 18.0045 6.18331C18.0656 6.18403 18.1267 6.17866 18.1867 6.16728C18.6734 6.07716 19.2482 5.89291 19.4044 5.24803C19.5506 4.64722 19.1521 4.14854 18.3129 3.88017C18.2132 3.84829 18.1092 3.83207 18.0045 3.83211C17.9509 3.83213 17.8973 3.83614 17.8443 3.84412C17.8292 3.81521 17.8072 3.79042 17.7803 3.77193C17.7535 3.75343 17.7225 3.74177 17.6901 3.73798C17.4163 3.69681 17.1398 3.67672 16.8629 3.6779C16.3998 3.68012 15.9379 3.72504 15.4831 3.81208C15.3389 3.84012 15.1927 3.87417 15.0485 3.91222L14.9183 3.94827C13.5164 2.67053 12.1666 1.49293 11.1131 0.0950274C11.0886 0.0664401 11.0584 0.04325 11.0245 0.0269223C10.9905 0.0105946 10.9536 0.00148416 10.9159 0.000166685C10.8783 -0.00115079 10.8408 0.0053533 10.8058 0.019268C10.7708 0.0331827 10.739 0.0542056 10.7126 0.0810083C9.81336 1.05233 6.57095 4.80143 6.57095 7.26878C6.57095 10.1307 7.81064 11.2742 9.95155 12.0753C12.3408 12.9745 16.7989 13.5754 17.8243 17.5748C18.6794 20.9033 17.4477 22.6116 17.0111 23.0923C16.9831 23.1243 17.0252 23.1684 17.0672 23.1484C18.1607 22.6517 23.3017 19.916 21.333 13.329ZM15.1026 4.1165C15.2361 4.07911 15.3763 4.04707 15.5231 4.02036C15.9647 3.9355 16.4133 3.89192 16.8629 3.89019C17.131 3.88833 17.3988 3.90707 17.664 3.94626C17.5264 3.99952 17.404 4.08584 17.3076 4.19761C17.2112 4.30937 17.1437 4.44315 17.1113 4.58714C17.2453 4.38282 17.436 4.22204 17.66 4.12451C17.7691 4.0709 17.889 4.04282 18.0105 4.04239C18.0927 4.04296 18.1744 4.05579 18.2528 4.08045C18.9558 4.30675 19.3243 4.70129 19.2021 5.19596C19.08 5.69064 18.6974 5.85486 18.1547 5.955C18.1072 5.96462 18.0589 5.96932 18.0105 5.96901C17.8317 5.97037 17.6575 5.91186 17.5158 5.80279C17.3584 5.68995 17.2226 5.54949 17.1153 5.38822C17.1793 5.65531 17.3435 5.88759 17.5739 6.03711L17.1053 6.08517C16.7388 6.12122 16.3442 6.16728 15.9317 6.24539L15.427 6.33952C15.3366 6.35711 15.2447 6.36583 15.1526 6.36555C14.8336 6.36527 14.5231 6.26202 14.2674 6.07115C14.2964 6.16689 14.3479 6.2543 14.4176 6.32607C14.4873 6.39784 14.5731 6.4519 14.668 6.48371C14.2852 6.5539 13.8906 6.52142 13.5244 6.38959L13.3602 6.3235C13.3902 6.34152 13.8028 6.72404 13.5304 7.14261C13.5044 6.94234 13.0938 6.49573 12.9296 6.34152C12.993 6.48723 13.0078 6.6495 12.9717 6.80427C12.9357 6.95903 12.8506 7.09805 12.7293 7.20069C12.7813 7.09012 12.7967 6.96586 12.7733 6.84594C12.7499 6.72602 12.6889 6.61668 12.5991 6.53378C12.9565 6.30648 13.3277 6.1018 13.7107 5.92095C14.3975 5.59602 15.1182 5.34817 15.8596 5.18194L16.164 5.11585C16.3362 5.08181 16.4844 5.05377 16.6006 5.03775L16.887 5.0017C16.887 5.0017 16.7969 5.0017 16.6467 5.0017H16.5966C16.4584 5.0017 16.2761 5.0017 16.0599 5.02773L15.8355 5.05177C15.0616 5.14876 14.3079 5.36777 13.6025 5.70065C13.2085 5.88768 12.8313 6.10812 12.475 6.35955C12.4428 6.25581 12.3781 6.16517 12.2905 6.10099C12.2029 6.0368 12.0969 6.00247 11.9883 6.00306C11.9496 6.00025 11.9108 6.00025 11.8722 6.00306C12.0086 5.92761 12.161 5.88573 12.3168 5.88089C12.4095 5.87941 12.5014 5.89943 12.5851 5.93939C12.6689 5.97935 12.7422 6.03816 12.7994 6.11121C12.7373 5.8869 12.5771 5.2961 12.3989 5.18595C12.4373 5.17979 12.4761 5.17645 12.515 5.17594C13.0217 5.17594 13.0498 5.73069 13.0558 5.73069C13.0942 5.51585 13.1767 5.31129 13.2981 5.12987C13.4421 4.9139 13.6349 4.73483 13.8609 4.60716L13.969 4.54708C13.8983 4.62877 13.8544 4.73023 13.8433 4.83771C13.8322 4.94518 13.8544 5.05347 13.9069 5.1479C13.9501 4.93871 14.0465 4.7442 14.1869 4.58317C14.3272 4.42214 14.5067 4.30003 14.708 4.22865C14.8402 4.20061 14.9704 4.15254 15.1026 4.1165ZM10.5524 5.6646C10.5508 5.64066 10.5561 5.61677 10.5676 5.59573C10.5792 5.5747 10.5964 5.55738 10.6175 5.54582C10.6385 5.53426 10.6624 5.52893 10.6863 5.53046C10.7102 5.53199 10.7333 5.54031 10.7526 5.55445L11.6879 6.09318L11.9062 6.22136L12.1065 6.33952C12.1256 6.35061 12.1415 6.36653 12.1525 6.38568C12.1635 6.40484 12.1694 6.42656 12.1694 6.44867C12.1694 6.47077 12.1635 6.49249 12.1525 6.51165C12.1415 6.53081 12.1256 6.54673 12.1065 6.55782L11.6879 6.80415C11.6687 6.81503 11.6469 6.82075 11.6248 6.82075C11.6027 6.82075 11.581 6.81503 11.5617 6.80415L10.6145 6.2494C10.5954 6.23839 10.5795 6.22266 10.5682 6.20372C10.557 6.18478 10.5509 6.16326 10.5504 6.14125L10.5524 5.6646ZM8.74992 6.33952L10.1098 5.55445C10.129 5.54359 10.1507 5.53796 10.1728 5.53812C10.1949 5.53829 10.2165 5.54424 10.2356 5.55539C10.2546 5.56654 10.2704 5.58249 10.2814 5.60166C10.2923 5.62082 10.2981 5.64252 10.298 5.6646V6.14125C10.2979 6.16311 10.2922 6.18457 10.2813 6.20353C10.2704 6.22249 10.2548 6.23829 10.2359 6.2494L9.28064 6.80415C9.26103 6.81502 9.23897 6.82072 9.21655 6.82072C9.19413 6.82072 9.17207 6.81502 9.15246 6.80415L8.7399 6.56583C8.71878 6.55541 8.701 6.53929 8.68857 6.51929C8.67614 6.4993 8.66955 6.47622 8.66955 6.45267C8.66955 6.42912 8.67614 6.40605 8.68857 6.38605C8.701 6.36605 8.71878 6.34994 8.7399 6.33952H8.74992ZM8.41146 8.46641V6.89627C8.4114 6.8742 8.41714 6.85249 8.4281 6.83333C8.43906 6.81417 8.45485 6.79821 8.47391 6.78707C8.49296 6.77592 8.51461 6.76996 8.53668 6.7698C8.55876 6.76963 8.58049 6.77526 8.59971 6.78613L9.01227 7.02445C9.0315 7.03578 9.04749 7.05186 9.05872 7.07115C9.06994 7.09043 9.07601 7.11229 9.07636 7.1346V8.22809C9.07627 8.25018 9.07028 8.27186 9.05901 8.29087C9.04775 8.30988 9.03161 8.32554 9.01227 8.33623L8.61173 8.57456C8.59249 8.58856 8.56967 8.59684 8.54593 8.59843C8.52218 8.60003 8.49847 8.59487 8.47753 8.58356C8.45659 8.57226 8.43927 8.55526 8.42758 8.53453C8.41589 8.5138 8.4103 8.49018 8.41146 8.46641ZM10.28 9.69808C10.2803 9.72023 10.2747 9.74206 10.2638 9.76131C10.2528 9.78055 10.2369 9.79652 10.2177 9.80756C10.1985 9.81859 10.1767 9.82428 10.1545 9.82405C10.1324 9.82382 10.1107 9.81767 10.0917 9.80623L8.73189 9.02317C8.7128 9.01181 8.69699 8.99568 8.68601 8.97637C8.67503 8.95706 8.66926 8.93523 8.66926 8.91302C8.66926 8.8908 8.67503 8.86897 8.68601 8.84966C8.69699 8.83035 8.7128 8.81423 8.73189 8.80287L9.14445 8.56454C9.16406 8.55367 9.18612 8.54797 9.20854 8.54797C9.23096 8.54797 9.25302 8.55367 9.27263 8.56454L10.2179 9.11129C10.237 9.12256 10.2528 9.13868 10.2637 9.15802C10.2746 9.17736 10.2803 9.19924 10.28 9.22144V9.69808ZM10.3501 8.88298L9.41282 8.33623C9.39348 8.32554 9.37734 8.30988 9.36608 8.29087C9.35481 8.27186 9.34882 8.25018 9.34873 8.22809V7.1346C9.34907 7.11229 9.35515 7.09043 9.36637 7.07115C9.3776 7.05186 9.39359 7.03578 9.41282 7.02445L10.3581 6.47971C10.3771 6.46801 10.3989 6.46182 10.4212 6.46182C10.4435 6.46182 10.4653 6.46801 10.4843 6.47971L11.4296 7.02445C11.4488 7.03578 11.4648 7.05186 11.476 7.07115C11.4872 7.09043 11.4933 7.11229 11.4936 7.1346V8.22809C11.4936 8.25018 11.4876 8.27186 11.4763 8.29087C11.465 8.30988 11.4489 8.32554 11.4296 8.33623L10.4843 8.88298C10.465 8.89386 10.4433 8.89958 10.4212 8.89958C10.3991 8.89958 10.3773 8.89386 10.3581 8.88298H10.3501ZM12.0945 9.02317L10.7426 9.80823C10.7234 9.82224 10.7006 9.83052 10.6768 9.83211C10.6531 9.83371 10.6294 9.82855 10.6084 9.81724C10.5875 9.80593 10.5702 9.78893 10.5585 9.7682C10.5468 9.74747 10.5412 9.72386 10.5424 9.70009V9.22144C10.5425 9.19908 10.5485 9.17715 10.5597 9.15783C10.571 9.13851 10.5871 9.12246 10.6064 9.11129L11.5517 8.56454C11.571 8.55366 11.5927 8.54794 11.6148 8.54794C11.6369 8.54794 11.6587 8.55366 11.6779 8.56454L12.1025 8.80687C12.1207 8.81845 12.1357 8.83443 12.146 8.85333C12.1564 8.87224 12.1619 8.89345 12.1619 8.91502C12.1619 8.93659 12.1564 8.9578 12.146 8.97671C12.1357 8.99561 12.1207 9.01159 12.1025 9.02317H12.0945ZM12.4169 8.46641C12.4166 8.48832 12.4106 8.50977 12.3995 8.52866C12.3884 8.54754 12.3726 8.56321 12.3536 8.57413C12.3346 8.58504 12.3131 8.59082 12.2912 8.59089C12.2693 8.59097 12.2477 8.58534 12.2286 8.57456L11.8161 8.33623C11.7973 8.32513 11.7816 8.30932 11.7707 8.29037C11.7599 8.27141 11.7541 8.24995 11.754 8.22809V7.1346C11.7543 7.11251 11.7602 7.09086 11.771 7.07162C11.7819 7.05238 11.7974 7.03616 11.8161 7.02445L12.2306 6.78613C12.2499 6.77526 12.2716 6.76963 12.2937 6.7698C12.3158 6.76996 12.3374 6.77592 12.3565 6.78707C12.3755 6.79821 12.3913 6.81417 12.4023 6.83333C12.4132 6.85249 12.419 6.8742 12.4189 6.89627L12.4169 8.46641Z" fill="white"/>
</svg>
