<svg width="20" height="20" viewBox="0 0 20 20" fill="none" xmlns="http://www.w3.org/2000/svg">
<path fill-rule="evenodd" clip-rule="evenodd" d="M6.81563 1.508H2.56922C2.4298 1.50804 2.29175 1.53554 2.16296 1.58894C2.03417 1.64233 1.91716 1.72057 1.81861 1.81919C1.72006 1.91781 1.6419 2.03488 1.5886 2.16371C1.5353 2.29254 1.5079 2.43061 1.50797 2.57003V6.81562C1.50875 7.09666 1.62095 7.36592 1.81995 7.56437C2.01896 7.76282 2.28853 7.87426 2.56957 7.87426C2.85061 7.87426 3.12018 7.76282 3.31919 7.56437C3.51819 7.36592 3.63039 7.09666 3.63117 6.81562V3.63116H6.81563C7.09666 3.63038 7.36592 3.51818 7.56436 3.31918C7.7628 3.12018 7.87424 2.85062 7.87424 2.56958C7.87424 2.28855 7.7628 2.01898 7.56436 1.81998C7.36592 1.62098 7.09666 1.50879 6.81563 1.508V1.508ZM6.81563 16.3688H3.63117V13.1844C3.63039 12.9034 3.51819 12.6341 3.31919 12.4357C3.12018 12.2372 2.85061 12.1258 2.56957 12.1258C2.28853 12.1258 2.01896 12.2372 1.81995 12.4357C1.62095 12.6341 1.50875 12.9034 1.50797 13.1844V17.4309C1.50802 17.7123 1.61985 17.9822 1.81886 18.1812C2.01788 18.3802 2.28778 18.492 2.56922 18.492H6.81563C7.09666 18.4912 7.36592 18.379 7.56436 18.18C7.7628 17.981 7.87424 17.7115 7.87424 17.4304C7.87424 17.1494 7.7628 16.8798 7.56436 16.6808C7.36592 16.4818 7.09666 16.3696 6.81563 16.3689V16.3688ZM17.4308 12.1233C17.2914 12.1232 17.1533 12.1506 17.0245 12.2039C16.8957 12.2572 16.7786 12.3354 16.68 12.4339C16.5814 12.5324 16.5031 12.6494 16.4497 12.7782C16.3963 12.907 16.3688 13.045 16.3688 13.1844V16.3688H13.1843C12.9033 16.3696 12.6341 16.4818 12.4356 16.6808C12.2372 16.8798 12.1257 17.1494 12.1257 17.4304C12.1257 17.7115 12.2372 17.981 12.4356 18.18C12.6341 18.379 12.9033 18.4912 13.1843 18.492H17.4308C17.7122 18.492 17.9821 18.3802 18.1811 18.1812C18.3801 17.9822 18.492 17.7123 18.492 17.4308V13.1844C18.492 12.903 18.3801 12.6331 18.1811 12.4341C17.9821 12.2351 17.7122 12.1233 17.4308 12.1233V12.1233ZM17.4308 1.508H13.1843C12.9033 1.50878 12.6341 1.62098 12.4356 1.81997C12.2372 2.01897 12.1257 2.28854 12.1257 2.56957C12.1257 2.85061 12.2372 3.12018 12.4356 3.31918C12.6341 3.51817 12.9033 3.63037 13.1843 3.63115H16.3688V6.81562C16.3696 7.09666 16.4818 7.36592 16.6808 7.56437C16.8798 7.76282 17.1494 7.87426 17.4304 7.87426C17.7115 7.87426 17.981 7.76282 18.18 7.56437C18.379 7.36592 18.4912 7.09666 18.492 6.81562V2.57003C18.4921 2.43061 18.4647 2.29254 18.4114 2.16371C18.3581 2.03488 18.2799 1.91781 18.1814 1.81919C18.0828 1.72057 17.9658 1.64233 17.837 1.58894C17.7082 1.53554 17.5702 1.50804 17.4308 1.508V1.508Z" fill="#CA0D00"/>
<mask id="path-2-inside-1" fill="white">
<rect x="5.83331" y="5.83337" width="8.33333" height="8.33333" rx="1"/>
</mask>
<rect x="5.83331" y="5.83337" width="8.33333" height="8.33333" rx="1" fill="#3455AA" stroke="#3455AA" stroke-width="4" stroke-linecap="round" stroke-linejoin="round" mask="url(#path-2-inside-1)"/>
</svg>
