<svg width="20" height="20" viewBox="0 0 20 20" fill="none" xmlns="http://www.w3.org/2000/svg">
<path d="M17.8999 4.34375L16.3936 2.46875C16.249 2.28357 16.0641 2.13383 15.8529 2.03093C15.6417 1.92804 15.4098 1.87471 15.1749 1.875H4.79361C4.57429 1.87504 4.35743 1.92125 4.15714 2.01062C3.95685 2.1 3.77762 2.23054 3.63111 2.39375L1.93111 4.26875C1.28706 4.98355 0.932719 5.91285 0.937362 6.875V9.0625C0.937362 9.22826 1.00321 9.38723 1.12042 9.50444C1.23763 9.62165 1.3966 9.6875 1.56236 9.6875H18.1249C18.2906 9.6875 18.4496 9.62165 18.5668 9.50444C18.684 9.38723 18.7499 9.22826 18.7499 9.0625V6.76563C18.7499 5.88521 18.4501 5.03104 17.8999 4.34375V4.34375ZM7.49986 6.5625V9.0625H6.24986V6.5625C6.30426 5.12235 6.73525 3.72163 7.49986 2.5H8.74986C8.74986 2.5 7.49986 5 7.49986 6.5625ZM13.7499 9.0625H12.4999V6.5625C12.4999 5 11.2499 2.5 11.2499 2.5H12.4999C13.2645 3.72163 13.6955 5.12235 13.7499 6.5625V9.0625Z" fill="#3455AA"/>
<path d="M2.5 10.625V16.875C2.5 17.3723 2.69754 17.8492 3.04917 18.2008C3.40081 18.5525 3.87772 18.75 4.375 18.75H7.8125V15.3125C7.8125 14.7323 8.04297 14.1759 8.4532 13.7657C8.86344 13.3555 9.41984 13.125 10 13.125C10.5802 13.125 11.1366 13.3555 11.5468 13.7657C11.957 14.1759 12.1875 14.7323 12.1875 15.3125V18.75H15.625C16.1223 18.75 16.5992 18.5525 16.9508 18.2008C17.3025 17.8492 17.5 17.3723 17.5 16.875V10.625H2.5Z" fill="#CA0D00"/>
</svg>
