<svg width="36" height="36" viewBox="0 0 36 36" fill="none" xmlns="http://www.w3.org/2000/svg">
<path d="M9.5 8C9.5 5.79086 11.2909 4 13.5 4H21.5C23.7091 4 25.5 5.79086 25.5 8V29.5C25.5 30.8807 24.3807 32 23 32H12C10.6193 32 9.5 30.8807 9.5 29.5V8Z" fill="#3455AA"/>
<path d="M9.5 6.5C9.5 5.11929 10.6193 4 12 4H23C24.3807 4 25.5 5.11929 25.5 6.5V27H9.5V6.5Z" fill="url(#paint0_linear)"/>
<rect x="14.5" y="28.5" width="6" height="2" rx="1" fill="#FECF32"/>
<path d="M21.7771 12.1891L17.5899 11.0124C17.5313 10.9959 17.4688 10.9959 17.4102 11.0124L13.2229 12.1891C13.0906 12.2263 13 12.3404 13 12.4697V16.7845C13 17.3457 13.2425 17.9202 13.7209 18.492C14.0862 18.9287 14.5916 19.3673 15.223 19.7954C16.2838 20.5147 17.3283 20.956 17.3723 20.9744C17.4129 20.9915 17.4565 21 17.5 21C17.5436 21 17.5872 20.9915 17.6278 20.9744C17.6718 20.956 18.7163 20.5147 19.777 19.7954C20.4085 19.3673 20.9139 18.9287 21.2792 18.492C21.7575 17.9202 22 17.3457 22 16.7845V12.4697C22 12.3404 21.9095 12.2263 21.7771 12.1891Z" fill="#FDFDFD"/>
<defs>
<linearGradient id="paint0_linear" x1="8.75714" y1="2.60358" x2="24.8175" y2="2.16224" gradientUnits="userSpaceOnUse">
<stop stop-color="#E63958"/>
<stop offset="0.0001" stop-color="#E21D0F"/>
<stop offset="1" stop-color="#FD4163"/>
</linearGradient>
</defs>
</svg>
