<svg width="200" height="200" viewBox="0 0 200 200" fill="none" xmlns="http://www.w3.org/2000/svg">
<path fill-rule="evenodd" clip-rule="evenodd" d="M94.6193 14.5792C114.372 11.2261 135.658 12.1833 152.686 22.7352C170.347 33.6795 180.89 52.7636 187.83 72.3391C194.923 92.3472 202.273 115.595 192.24 134.304C182.424 152.61 157.21 153.682 138.921 163.542C123.853 171.666 111.641 185.099 94.6193 186.934C76.4612 188.891 58.0444 183.933 42.7839 173.905C27.0245 163.551 14.9784 148.279 8.72565 130.496C2.36777 112.415 -0.0630364 91.8948 7.80084 74.4147C15.3325 57.6731 34.19 50.7043 49.3104 40.2832C63.9657 30.1828 77.0683 17.5585 94.6193 14.5792Z" fill="#F2F2F2"/>
<rect x="74.0895" y="56.4286" width="67.1428" height="88.5714" rx="4" transform="rotate(6.16905 74.0895 56.4286)" fill="#E2E4E5"/>
<rect x="52.1862" y="68.103" width="67.1429" height="88.5714" rx="4" transform="rotate(-9.23312 52.1862 68.103)" fill="#C3C8CD"/>
<rect x="62.6323" y="77.062" width="45.7143" height="5.71429" rx="2.85714" transform="rotate(-9.79249 62.6323 77.062)" fill="#FDFDFD"/>
<rect x="65.3052" y="92.5474" width="27.1429" height="5.71429" rx="2.85714" transform="rotate(-9.79248 65.3052 92.5474)" fill="#FDFDFD"/>
<rect x="67.9783" y="108.033" width="38.5714" height="5.71429" rx="2.85714" transform="rotate(-9.79248 67.9783 108.033)" fill="#FDFDFD"/>
<rect x="70.6512" y="124.597" width="49.3263" height="5.71428" rx="2.85714" transform="rotate(-9.79249 70.6512 124.597)" fill="#FDFDFD"/>
<circle cx="157" cy="156" r="5" fill="#C3C8CD"/>
<circle cx="37" cy="106" r="7" fill="#C3C8CD"/>
<path d="M145.209 43.6118C146.247 42.0144 148.722 42.6777 148.822 44.5798L149.178 51.3759C149.223 52.2266 149.81 52.9518 150.633 53.1722L157.206 54.9336C159.046 55.4266 159.18 57.9859 157.402 58.6684L151.048 61.1073C150.253 61.4126 149.745 62.1952 149.79 63.0458L150.146 69.8419C150.245 71.744 147.853 72.6624 146.654 71.1822L142.371 65.8934C141.835 65.2314 140.934 64.9899 140.139 65.2951L133.785 67.734C132.007 68.4166 130.394 66.4249 131.432 64.8275L135.138 59.12C135.602 58.4056 135.553 57.4737 135.017 56.8117L130.734 51.5229C129.536 50.0427 130.932 47.8934 132.771 48.3863L139.345 50.1477C140.168 50.3682 141.039 50.0338 141.503 49.3194L145.209 43.6118Z" fill="#C3C8CD"/>
</svg>
