<!--
Copyright (c) 2021 PT Telkom Indonesia Tbk

This software is licensed to PT Telkom Indonesia Tbk
All use of the material herein is restricted All rights are reserved
You may not use, copy, duplicate, modify, merge, publish, distribute, sublicense the Software without prior written agreement
-->
<svg width="36" height="36" viewBox="0 0 36 36" fill="none" xmlns="http://www.w3.org/2000/svg">
<path d="M21.8235 21.7528C21.8235 23.8644 20.1117 25.5763 18 25.5763C15.8883 25.5763 14.1765 23.8644 14.1765 21.7528C14.1765 19.6411 15.8883 17.9293 18 17.9293C20.1117 17.9293 21.8235 19.6411 21.8235 21.7528Z" fill="url(#paint0_linear)"/>
<path fill-rule="evenodd" clip-rule="evenodd" d="M27.508 16.3868L20.3708 10.3722C19.0187 9.23272 16.9812 9.23272 15.6291 10.3722L8.49203 16.3867C7.73018 17.0288 7.29428 17.949 7.29427 18.9154L7.29419 28.6737C7.29419 29.9194 8.35933 30.9292 9.67326 30.9292H26.3267C27.6406 30.9292 28.7058 29.9194 28.7058 28.6737V18.9155C28.7058 17.9491 28.2699 17.0289 27.508 16.3868ZM24.8823 21.7528C24.8823 25.5538 21.801 28.6351 18 28.6351C14.199 28.6351 11.1177 25.5538 11.1177 21.7528C11.1177 17.9518 14.199 14.8705 18 14.8705C21.801 14.8705 24.8823 17.9518 24.8823 21.7528Z" fill="url(#paint1_linear)"/>
<path fill-rule="evenodd" clip-rule="evenodd" d="M18.0001 9.85078L29.4068 18.9762C30.1616 19.58 31.2628 19.4576 31.8666 18.7029C32.4704 17.9482 32.348 16.8469 31.5933 16.2432L19.4056 6.49305C18.5839 5.83565 17.4162 5.83565 16.5945 6.49305L4.40685 16.2432C3.65214 16.8469 3.52978 17.9482 4.13354 18.7029C4.73731 19.4576 5.83857 19.58 6.59328 18.9762L18.0001 9.85078Z" fill="#3455AA"/>
<defs>
<linearGradient id="paint0_linear" x1="6.30008" y1="8.2176" x2="27.7751" y2="7.36928" gradientUnits="userSpaceOnUse">
<stop stop-color="#E63958"/>
<stop offset="0.0001" stop-color="#E21D0F"/>
<stop offset="1" stop-color="#FD4163"/>
</linearGradient>
<linearGradient id="paint1_linear" x1="6.30008" y1="8.2176" x2="27.7751" y2="7.36928" gradientUnits="userSpaceOnUse">
<stop stop-color="#E63958"/>
<stop offset="0.0001" stop-color="#E21D0F"/>
<stop offset="1" stop-color="#FD4163"/>
</linearGradient>
</defs>
</svg>
