<svg width="36" height="36" viewBox="0 0 36 36" fill="none" xmlns="http://www.w3.org/2000/svg">
<path d="M9.5 8C9.5 5.79086 11.2909 4 13.5 4H21.5C23.7091 4 25.5 5.79086 25.5 8V29.5C25.5 30.8807 24.3807 32 23 32H12C10.6193 32 9.5 30.8807 9.5 29.5V8Z" fill="#3455AA"/>
<path d="M9.5 6.5C9.5 5.11929 10.6193 4 12 4H23C24.3807 4 25.5 5.11929 25.5 6.5V27H9.5V6.5Z" fill="url(#paint0_linear)"/>
<rect x="14.5" y="28.5" width="6" height="2" rx="1" fill="#FECF32"/>
<g filter="url(#filter0_d)">
<path d="M21.6976 17.5638C21.0853 17.5638 20.4842 17.4681 19.9145 17.2798C19.6354 17.1846 19.2922 17.272 19.1219 17.4469L17.9975 18.2957C16.6935 17.5997 15.8903 16.7967 15.2037 15.5025L16.0275 14.4074C16.2416 14.1937 16.3183 13.8814 16.2264 13.5885C16.0373 13.0158 15.9413 12.4149 15.9413 11.8024C15.9413 11.36 15.5813 11 15.1389 11H13.3024C12.86 11 12.5 11.36 12.5 11.8024C12.5 16.874 16.626 21 21.6976 21C22.14 21 22.5 20.64 22.5 20.1976V18.3662C22.5 17.9238 22.14 17.5638 21.6976 17.5638Z" fill="#FDFDFD"/>
</g>
<defs>
<filter id="filter0_d" x="8.5" y="9" width="18" height="18" filterUnits="userSpaceOnUse" color-interpolation-filters="sRGB">
<feFlood flood-opacity="0" result="BackgroundImageFix"/>
<feColorMatrix in="SourceAlpha" type="matrix" values="0 0 0 0 0 0 0 0 0 0 0 0 0 0 0 0 0 0 127 0"/>
<feOffset dy="2"/>
<feGaussianBlur stdDeviation="2"/>
<feColorMatrix type="matrix" values="0 0 0 0 0 0 0 0 0 0 0 0 0 0 0 0 0 0 0.3 0"/>
<feBlend mode="normal" in2="BackgroundImageFix" result="effect1_dropShadow"/>
<feBlend mode="normal" in="SourceGraphic" in2="effect1_dropShadow" result="shape"/>
</filter>
<linearGradient id="paint0_linear" x1="8.75714" y1="2.60358" x2="24.8175" y2="2.16224" gradientUnits="userSpaceOnUse">
<stop stop-color="#E63958"/>
<stop offset="0.0001" stop-color="#E21D0F"/>
<stop offset="1" stop-color="#FF5F54"/>
</linearGradient>
</defs>
</svg>
