<svg width="36" height="36" viewBox="0 0 36 36" fill="none" xmlns="http://www.w3.org/2000/svg">
<path d="M9.5 8C9.5 5.79086 11.2909 4 13.5 4H21.5C23.7091 4 25.5 5.79086 25.5 8V29.5C25.5 30.8807 24.3807 32 23 32H12C10.6193 32 9.5 30.8807 9.5 29.5V8Z" fill="#3455AA"/>
<path d="M9.5 6.5C9.5 5.11929 10.6193 4 12 4H23C24.3807 4 25.5 5.11929 25.5 6.5V27H9.5V6.5Z" fill="url(#paint0_linear)"/>
<path d="M14.5 29.5C14.5 28.9477 14.9477 28.5 15.5 28.5H19.5C20.0523 28.5 20.5 28.9477 20.5 29.5C20.5 30.0523 20.0523 30.5 19.5 30.5H15.5C14.9477 30.5 14.5 30.0523 14.5 29.5Z" fill="#FECF32"/>
<g filter="url(#filter0_d)">
<path d="M12.5 16C12.5 15.4477 12.9477 15 13.5 15C14.0523 15 14.5 15.4477 14.5 16V19C14.5 19.5523 14.0523 20 13.5 20C12.9477 20 12.5 19.5523 12.5 19V16Z" fill="#FDFDFD"/>
<path d="M16.5 14C16.5 13.4477 16.9477 13 17.5 13C18.0523 13 18.5 13.4477 18.5 14V19C18.5 19.5523 18.0523 20 17.5 20C16.9477 20 16.5 19.5523 16.5 19V14Z" fill="#FDFDFD"/>
<path d="M20.5 12C20.5 11.4477 20.9477 11 21.5 11C22.0523 11 22.5 11.4477 22.5 12V19C22.5 19.5523 22.0523 20 21.5 20C20.9477 20 20.5 19.5523 20.5 19V12Z" fill="#FDFDFD"/>
</g>
<defs>
<filter id="filter0_d" x="8.5" y="9" width="18" height="17" filterUnits="userSpaceOnUse" color-interpolation-filters="sRGB">
<feFlood flood-opacity="0" result="BackgroundImageFix"/>
<feColorMatrix in="SourceAlpha" type="matrix" values="0 0 0 0 0 0 0 0 0 0 0 0 0 0 0 0 0 0 127 0"/>
<feOffset dy="2"/>
<feGaussianBlur stdDeviation="2"/>
<feColorMatrix type="matrix" values="0 0 0 0 0 0 0 0 0 0 0 0 0 0 0 0 0 0 0.3 0"/>
<feBlend mode="normal" in2="BackgroundImageFix" result="effect1_dropShadow"/>
<feBlend mode="normal" in="SourceGraphic" in2="effect1_dropShadow" result="shape"/>
</filter>
<linearGradient id="paint0_linear" x1="8.75714" y1="2.60358" x2="24.8175" y2="2.16224" gradientUnits="userSpaceOnUse">
<stop stop-color="#E63958"/>
<stop offset="0.0001" stop-color="#E21D0F"/>
<stop offset="1" stop-color="#FF5F54"/>
</linearGradient>
</defs>
</svg>
