<svg width="37" height="36" viewBox="0 0 37 36" fill="none" xmlns="http://www.w3.org/2000/svg">
<path d="M20.6327 5.76734C20.0949 5.127 19.5826 4.53789 19.1215 4C18.6605 4.5635 18.1482 5.15261 17.6103 5.76734C14.3574 9.50694 9.875 14.7065 9.875 18.7535C9.875 21.3148 10.8995 23.6201 12.59 25.285C14.2549 26.9498 16.5602 28 19.1215 28C21.6829 28 23.9881 26.9755 25.653 25.285C27.3179 23.6201 28.3681 21.2892 28.3681 18.7535C28.3681 14.7065 23.8857 9.53255 20.6327 5.76734Z" fill="#7C9BEC"/>
<path fill-rule="evenodd" clip-rule="evenodd" d="M19.2639 4.1659C16.0486 7.87008 11.875 12.8484 11.875 16.7535C11.875 19.3148 12.8995 21.6201 14.59 23.285C16.2549 24.9498 18.5602 26 21.1215 26C23.1603 26 25.0369 25.3509 26.5573 24.2334C26.2817 24.6072 25.9791 24.9588 25.653 25.285C23.9881 26.9755 21.6829 28 19.1215 28C16.5602 28 14.2549 26.9498 12.59 25.285C10.8995 23.6201 9.875 21.3148 9.875 18.7535C9.875 14.7065 14.3574 9.50694 17.6103 5.76734C18.1482 5.15261 18.6605 4.5635 19.1215 4C19.1685 4.05477 19.216 4.11007 19.2639 4.1659Z" fill="#476AC2"/>
<ellipse cx="18.875" cy="32.5" rx="7.5" ry="1.5" fill="#E2E4E5"/>
<ellipse cx="22.8032" cy="17.9501" rx="2.66667" ry="4" transform="rotate(-11.081 22.8032 17.9501)" fill="#B1C7FF"/>
</svg>
