<svg width="37" height="36" viewBox="0 0 37 36" fill="none" xmlns="http://www.w3.org/2000/svg">
<path d="M16.3867 31.8532L27.1868 13.2571C27.4314 12.836 27.0846 12.3179 26.6021 12.3835L19.4182 13.36L21.1346 4.34845C21.1925 4.04467 20.8008 3.87059 20.6141 4.11707L9.99523 18.134C9.68591 18.5423 10.0134 19.1228 10.5228 19.0692L18.4431 18.2355L15.8466 31.6508C15.784 31.9743 16.2212 32.1382 16.3867 31.8532Z" fill="#FFC379"/>
<path d="M16.3867 31.8532L27.1868 13.2571C27.4314 12.836 27.0846 12.3179 26.6021 12.3835L19.4182 13.36L21.1346 4.34845C21.1925 4.04467 20.8008 3.87059 20.6141 4.11707L9.99523 18.134C9.68591 18.5423 10.0134 19.1228 10.5228 19.0692L18.4431 18.2355L15.8466 31.6508C15.784 31.9743 16.2212 32.1382 16.3867 31.8532Z" fill="#FFAD00"/>
<path d="M16.316 15.1406C16.1176 15.1564 15.9859 14.9396 16.0913 14.7709L21.0308 4.06773C20.9127 3.97427 20.7267 3.96825 20.6141 4.11689L9.99523 18.1338C9.68591 18.5421 10.0134 19.1226 10.5228 19.069L18.4431 18.2353L15.8466 31.6506C15.8116 31.8315 15.9336 31.9589 16.0763 31.9893L23.5256 15.9102C23.7342 15.2503 23.208 14.5891 22.5181 14.6444L16.316 15.1406Z" fill="#FCEDBE"/>
<path d="M13.316 17.1398C13.1176 17.1556 12.9859 16.9388 13.0913 16.7701L21.0308 4.06693C20.9127 3.97347 20.7267 3.96746 20.6141 4.1161L9.99523 18.1331C9.68591 18.5414 10.0134 19.1218 10.5228 19.0682L18.4431 18.2345L15.8466 31.6498C15.8116 31.8307 15.9336 31.9581 16.0763 31.9885L20.5256 17.9094C20.7342 17.2495 20.208 16.5884 19.5181 16.6436L13.316 17.1398Z" fill="#6081D7"/>
<circle cx="26.375" cy="24" r="6" fill="url(#paint0_linear)"/>
<g filter="url(#filter0_d)">
<path fill-rule="evenodd" clip-rule="evenodd" d="M26.375 20C26.9273 20 27.375 20.4477 27.375 21V23.5858L29.0821 25.2929C29.4726 25.6834 29.4726 26.3166 29.0821 26.7071C28.6916 27.0976 28.0584 27.0976 27.6679 26.7071L25.9608 25C25.5857 24.6249 25.375 24.1162 25.375 23.5858V21C25.375 20.4477 25.8227 20 26.375 20Z" fill="#FDFDFD"/>
</g>
<defs>
<filter id="filter0_d" x="21.375" y="18" width="12" height="15" filterUnits="userSpaceOnUse" color-interpolation-filters="sRGB">
<feFlood flood-opacity="0" result="BackgroundImageFix"/>
<feColorMatrix in="SourceAlpha" type="matrix" values="0 0 0 0 0 0 0 0 0 0 0 0 0 0 0 0 0 0 127 0"/>
<feOffset dy="2"/>
<feGaussianBlur stdDeviation="2"/>
<feColorMatrix type="matrix" values="0 0 0 0 0 0 0 0 0 0 0 0 0 0 0 0 0 0 0.3 0"/>
<feBlend mode="normal" in2="BackgroundImageFix" result="effect1_dropShadow"/>
<feBlend mode="normal" in="SourceGraphic" in2="effect1_dropShadow" result="shape"/>
</filter>
<linearGradient id="paint0_linear" x1="19.8179" y1="17.2714" x2="31.8534" y2="16.796" gradientUnits="userSpaceOnUse">
<stop stop-color="#E63958"/>
<stop offset="0.0001" stop-color="#E21D0F"/>
<stop offset="1" stop-color="#FF5F54"/>
</linearGradient>
</defs>
</svg>
