<svg width="22" height="34" viewBox="0 0 22 34" fill="none" xmlns="http://www.w3.org/2000/svg">
<path d="M11 0C8.10694 0 5.42469 0.943481 3.17701 2.72778C2.97376 2.88977 2.94141 3.18469 3.10145 3.38659L3.75428 4.20849C3.91651 4.41272 4.20899 4.43884 4.41272 4.27612C6.29468 2.77356 8.63892 1.86951 11.2344 1.86951C13.7039 1.86951 15.9541 2.68445 17.7837 4.05713C17.9867 4.20947 18.274 4.1726 18.432 3.97387L18.8984 3.38659C19.0588 3.18457 19.026 2.88965 18.823 2.72778C16.5753 0.943481 13.8931 0 11 0Z" fill="#3455AA"/>
<path d="M11 3.74865C8.96069 3.74865 7.04541 4.41467 5.46131 5.67516C5.26319 5.83288 5.2367 6.1289 5.39417 6.32726L6.04578 7.14757C6.21021 7.35461 6.50647 7.37707 6.71289 7.21191C7.95459 6.21862 9.52405 5.6195 11.2344 5.6195C12.8249 5.6195 14.2977 6.13342 15.4956 7.00365C15.6985 7.15111 15.9818 7.11278 16.1379 6.91625L16.6057 6.32726C16.766 6.12524 16.7333 5.83031 16.5301 5.66845C14.9477 4.41235 13.0356 3.74865 11 3.74865Z" fill="#3455AA"/>
<path fill-rule="evenodd" clip-rule="evenodd" d="M5.36555 18.3236C2.52612 20.4486 0.505973 23.5175 0.0953377 26.33C-0.409613 29.788 1.11472 32.6216 4.11092 33.7946C4.80027 34.0644 4.94857 34.0435 4.70739 33.7102C3.09965 31.4887 3.67599 27.6158 5.92441 25.5326C6.69566 24.818 7.75709 24.2366 8.68734 24.0193C8.84731 23.9819 8.84765 23.9877 8.67929 23.8854C6.89535 22.8015 5.75789 21.5501 5.39176 20.2686C5.21807 19.6605 5.22449 18.9873 5.40889 18.4757C5.48907 18.2534 5.48942 18.2521 5.47276 18.2533C5.46471 18.2538 5.41646 18.2855 5.36555 18.3236Z" fill="#6C6C74"/>
<path fill-rule="evenodd" clip-rule="evenodd" d="M10.6767 11.0511C10.5562 11.1056 9.50219 12.3611 8.9006 13.1666C7.24332 15.3855 6.51753 16.9666 6.51978 18.3534C6.52333 20.5606 7.32065 21.8659 9.1901 22.725C9.7042 22.9612 10.146 23.1194 11.2091 23.4477C12.3579 23.8025 13.0818 24.0543 13.666 24.3023C15.826 25.2194 17.0941 26.5025 17.6075 28.2901C18.224 30.437 17.9748 32.5016 16.9452 33.7768C16.7547 34.0127 16.8203 34.0244 17.2101 33.8239C19.5252 32.6335 21.0752 30.6416 21.471 28.3482C22.0115 25.2161 20.3506 20.8288 17.3605 17.4904C17.2464 17.363 17.1589 17.2588 17.1661 17.2589C17.2183 17.2592 18.0524 17.1685 18.1763 17.149C18.5869 17.0845 19.2723 16.7804 20.0243 16.3289C20.4088 16.0981 20.8652 15.7933 20.8484 15.7785C20.7679 15.7081 19.7408 15.2868 19.242 15.1196C18.6241 14.9125 18.3548 14.852 17.4904 14.7256C16.7719 14.6205 15.7502 14.6854 14.9827 14.885C14.7985 14.933 14.7891 14.9338 14.756 14.9054C14.737 14.8892 14.4636 14.6411 14.1484 14.3542C12.6291 12.9714 11.9018 12.2335 11.2134 11.3763C10.9307 11.0244 10.8472 10.9738 10.6767 11.0511ZM17.1654 14.9196C17.4246 14.9417 17.4618 14.956 17.3371 14.9856C17.1317 15.0344 16.8338 15.1558 16.8338 15.1906C16.8338 15.2096 16.8231 15.2115 17.1166 15.138C17.5475 15.0299 17.7231 14.9983 17.8274 15.0101C18.4 15.0753 19.2429 15.3301 20.1402 15.7092C20.3425 15.7948 20.3858 15.8189 20.3675 15.8357C20.332 15.8686 19.8779 16.1461 19.6462 16.2765C18.5147 16.9132 17.9462 17.0622 17.4803 16.8442C17.3414 16.7792 17.0791 16.5348 16.9854 16.3832C16.9449 16.3176 16.9554 16.3943 17.0024 16.5072C17.073 16.677 17.1621 16.8105 17.2759 16.9173L17.3696 17.0052L17.3165 17.0138C17.2872 17.0184 17.1041 17.038 16.9096 17.0573C16.4242 17.1055 16.1455 17.1455 15.6045 17.2448C14.8946 17.3751 14.5935 17.3399 14.2174 17.0828C14.1331 17.0251 14.1245 17.0373 14.1744 17.1443C14.2247 17.2522 14.3443 17.3746 14.443 17.419L14.5173 17.4525L14.442 17.4638C14.1662 17.5055 13.7497 17.4637 13.4742 17.3667C13.3815 17.334 13.2915 17.3029 13.274 17.2974C13.2527 17.2906 13.2689 17.3201 13.3231 17.3867C13.4868 17.5876 13.5458 17.8563 13.4607 18.0129L13.4307 18.068L13.3807 17.973C13.3171 17.852 13.15 17.6379 12.9748 17.4529C12.8995 17.3734 12.8409 17.3058 12.8445 17.3027C12.9268 17.2315 13.7902 16.809 14.1394 16.6689C14.8359 16.3895 15.6515 16.1675 16.4626 16.0364C16.6058 16.0133 16.727 15.9899 16.7321 15.9846C16.7544 15.9607 15.8551 15.9949 15.6213 16.0268C14.6672 16.157 13.7175 16.4837 12.9059 16.9609L12.6915 17.0871L12.673 17.0172C12.5909 16.7074 12.4486 16.3516 12.3605 16.2358L12.3188 16.181L12.3997 16.1811C12.6455 16.1814 12.8043 16.3126 12.8947 16.5902L12.9383 16.7243L12.9845 16.5747C13.0948 16.2175 13.328 15.8987 13.6257 15.6984C13.808 15.5757 13.808 15.5757 13.7568 15.6875C13.7035 15.8039 13.6966 15.9814 13.7413 16.0868C13.7754 16.1668 13.7817 16.1614 13.829 16.0121C13.9324 15.6862 14.2072 15.3961 14.5388 15.2626C15.1871 15.0018 16.3498 14.85 17.1654 14.9196ZM10.1481 16.5852C10.1792 16.6162 10.1818 16.6413 10.1818 16.9043V17.1897L10.1271 17.2304C10.0443 17.292 9.1613 17.7977 9.1366 17.7977C9.12479 17.7977 9.02733 17.7473 8.92012 17.6856C8.46929 17.4265 8.43769 17.4796 9.36119 16.9451C10.0556 16.5432 10.0903 16.5273 10.1481 16.5852ZM11.3108 16.9538C12.0404 17.3741 12.0689 17.395 12.0357 17.4823C12.0167 17.5323 11.5543 17.8034 11.5081 17.7916C11.4472 17.776 10.5004 17.2203 10.4847 17.1908C10.4494 17.1251 10.4642 16.6451 10.503 16.5959C10.5596 16.5239 10.5816 16.5337 11.3108 16.9538ZM12.4334 16.9247C12.4819 16.9429 12.5566 16.9895 12.5994 17.0283L12.6771 17.0988L12.5367 17.1913C12.3588 17.3087 12.3663 17.3076 12.3151 17.2203C12.2265 17.069 12.0701 16.975 11.9007 16.9711L11.8406 16.9697L11.8995 16.944C12.0722 16.8687 12.265 16.8617 12.4334 16.9247ZM12.8424 17.4181C12.8952 17.6065 12.8165 17.9453 12.6942 18.0559C12.6632 18.0839 12.6626 18.0814 12.6704 17.9602C12.6801 17.8094 12.6475 17.6968 12.562 17.5847C12.5298 17.5425 12.5059 17.5058 12.5089 17.503C12.536 17.4775 12.8007 17.3295 12.8096 17.335C12.8159 17.3389 12.8307 17.3764 12.8424 17.4181ZM10.389 17.4883C10.5013 17.5455 11.3199 18.022 11.348 18.0466C11.386 18.0798 11.3939 19.218 11.3564 19.2672C11.323 19.3111 10.3732 19.8522 10.3295 19.8522C10.2806 19.8522 9.36242 19.3271 9.31035 19.2693C9.26708 19.2213 9.24975 18.169 9.2907 18.0792C9.3068 18.0439 10.2771 17.4623 10.3216 17.4612C10.329 17.461 10.3593 17.4733 10.389 17.4883ZM8.71061 17.8926C9.03143 18.075 9.00304 18.0009 9.00277 18.6546C9.00243 19.3159 9.02577 19.2494 8.73531 19.4183C8.33874 19.6489 8.36303 19.6982 8.36303 18.6636V17.8338L8.40746 17.7989C8.46772 17.7515 8.45639 17.748 8.71061 17.8926ZM12.2743 17.8178C12.3014 17.8493 12.3037 17.9147 12.3037 18.6616C12.3037 19.6896 12.3232 19.6504 11.9268 19.4216C11.8053 19.3515 11.6964 19.2819 11.6848 19.2668C11.6584 19.2325 11.6543 18.1164 11.6804 18.0676C11.694 18.0422 11.9535 17.8819 12.1353 17.7865C12.1854 17.7602 12.2339 17.7712 12.2743 17.8178ZM9.65834 19.8172C9.93036 19.9739 10.1593 20.1122 10.1671 20.1245C10.1749 20.1368 10.1814 20.2733 10.1816 20.4278L10.1818 20.7087L10.1375 20.7435C10.0733 20.794 10.1115 20.812 9.36399 20.3811C8.55589 19.9152 8.56593 19.9229 8.62912 19.8234C8.6498 19.7909 9.0921 19.5347 9.12977 19.5334C9.14854 19.5328 9.38638 19.6605 9.65834 19.8172ZM11.7779 19.6628C12.1783 19.8933 12.2025 19.8566 11.3108 20.3715C10.5584 20.806 10.5721 20.7998 10.5094 20.7371C10.4542 20.6819 10.4447 20.1871 10.4976 20.1238C10.5356 20.0783 11.4767 19.5341 11.5191 19.5331C11.5368 19.5326 11.6532 19.591 11.7779 19.6628Z" fill="#EC2C24"/>
</svg>
