<svg width="36" height="36" viewBox="0 0 36 36" fill="none" xmlns="http://www.w3.org/2000/svg">
<path d="M16.0117 31.8532L26.8118 13.2571C27.0564 12.836 26.7096 12.3179 26.2271 12.3835L19.0432 13.36L20.7596 4.34845C20.8175 4.04467 20.4258 3.87059 20.2391 4.11707L9.62023 18.134C9.31091 18.5423 9.63844 19.1228 10.1478 19.0692L18.0681 18.2355L15.4716 31.6508C15.409 31.9743 15.8462 32.1382 16.0117 31.8532Z" fill="#FFC379"/>
<path d="M16.0117 31.8532L26.8118 13.2571C27.0564 12.836 26.7096 12.3179 26.2271 12.3835L19.0432 13.36L20.7596 4.34845C20.8175 4.04467 20.4258 3.87059 20.2391 4.11707L9.62023 18.134C9.31091 18.5423 9.63844 19.1228 10.1478 19.0692L18.0681 18.2355L15.4716 31.6508C15.409 31.9743 15.8462 32.1382 16.0117 31.8532Z" fill="#FFAD00"/>
<path d="M15.941 15.1406C15.7426 15.1564 15.6109 14.9396 15.7163 14.7709L20.6558 4.06773C20.5377 3.97427 20.3517 3.96825 20.2391 4.11689L9.62023 18.1338C9.31091 18.5421 9.63844 19.1226 10.1478 19.069L18.0681 18.2353L15.4716 31.6506C15.4366 31.8315 15.5586 31.9589 15.7013 31.9893L23.1506 15.9102C23.3592 15.2503 22.833 14.5891 22.1431 14.6444L15.941 15.1406Z" fill="#FCEDBE"/>
<path d="M12.941 17.1398C12.7426 17.1556 12.6109 16.9388 12.7163 16.7701L20.6558 4.06693C20.5377 3.97347 20.3517 3.96746 20.2391 4.1161L9.62023 18.1331C9.31091 18.5414 9.63844 19.1218 10.1478 19.0682L18.0681 18.2345L15.4716 31.6498C15.4366 31.8307 15.5586 31.9581 15.7013 31.9885L20.1506 17.9094C20.3592 17.2495 19.833 16.5884 19.1431 16.6436L12.941 17.1398Z" fill="#6081D7"/>
</svg>
