<svg width="37" height="36" viewBox="0 0 37 36" fill="none" xmlns="http://www.w3.org/2000/svg">
<path d="M4.125 15.5C4.125 14.1193 5.24429 13 6.625 13H29.625C31.0057 13 32.125 14.1193 32.125 15.5V28.5C32.125 29.8807 31.0057 31 29.625 31H6.625C5.24429 31 4.125 29.8807 4.125 28.5V15.5Z" fill="url(#paint0_linear)"/>
<path opacity="0.5" d="M4.125 17H32.125V20H4.125V17Z" fill="white"/>
<g filter="url(#filter0_d)">
<path d="M16.4042 21.6099C16.5877 20.5545 17.2149 19.8662 18.1785 19.8662C19.1575 19.8662 19.7694 20.5698 19.907 21.6099H16.4042ZM21.2531 25.5411C21.4214 25.3881 21.559 25.1587 21.559 24.8528C21.559 24.3327 21.1766 23.935 20.6565 23.935C20.4118 23.935 20.2588 23.9962 20.0906 24.1185C19.6164 24.4704 19.081 24.6692 18.4386 24.6692C17.3984 24.6692 16.6642 24.1185 16.4348 23.0631H21.039C21.6508 23.0631 22.125 22.6195 22.125 21.9465C22.125 20.2486 20.9166 18 18.1785 18C15.7923 18 14.125 19.9273 14.125 22.2677V22.2983C14.125 24.8069 15.9453 26.5354 18.408 26.5354C19.6011 26.5354 20.5342 26.153 21.2531 25.5411Z" fill="#FDFDFD"/>
</g>
<path d="M18.125 4C15.2319 4 12.5497 4.94348 10.302 6.72778C10.0988 6.88977 10.0664 7.18469 10.2264 7.38659L10.8793 8.20849C11.0415 8.41272 11.334 8.43884 11.5377 8.27612C13.4197 6.77356 15.7639 5.86951 18.3594 5.86951C20.8289 5.86951 23.0791 6.68445 24.9087 8.05713C25.1117 8.20947 25.399 8.1726 25.557 7.97387L26.0234 7.38659C26.1838 7.18457 26.151 6.88965 25.948 6.72778C23.7003 4.94348 21.0181 4 18.125 4Z" fill="#3455AA"/>
<path d="M18.125 7.74865C16.0857 7.74865 14.1704 8.41467 12.5863 9.67516C12.3882 9.83288 12.3617 10.1289 12.5192 10.3273L13.1708 11.1476C13.3352 11.3546 13.6315 11.3771 13.8379 11.2119C15.0796 10.2186 16.649 9.6195 18.3594 9.6195C19.9499 9.6195 21.4227 10.1334 22.6206 11.0037C22.8235 11.1511 23.1068 11.1128 23.2629 10.9163L23.7307 10.3273C23.891 10.1252 23.8583 9.83031 23.6551 9.66845C22.0727 8.41235 20.1606 7.74865 18.125 7.74865Z" fill="#3455AA"/>
<defs>
<filter id="filter0_d" x="10.125" y="16" width="16" height="16.5354" filterUnits="userSpaceOnUse" color-interpolation-filters="sRGB">
<feFlood flood-opacity="0" result="BackgroundImageFix"/>
<feColorMatrix in="SourceAlpha" type="matrix" values="0 0 0 0 0 0 0 0 0 0 0 0 0 0 0 0 0 0 127 0"/>
<feOffset dy="2"/>
<feGaussianBlur stdDeviation="2"/>
<feColorMatrix type="matrix" values="0 0 0 0 0 0 0 0 0 0 0 0 0 0 0 0 0 0 0.3 0"/>
<feBlend mode="normal" in2="BackgroundImageFix" result="effect1_dropShadow"/>
<feBlend mode="normal" in="SourceGraphic" in2="effect1_dropShadow" result="shape"/>
</filter>
<linearGradient id="paint0_linear" x1="2.825" y1="11.9072" x2="30.846" y2="10.1853" gradientUnits="userSpaceOnUse">
<stop stop-color="#E63958"/>
<stop offset="0.0001" stop-color="#E21D0F"/>
<stop offset="1" stop-color="#FF5F54"/>
</linearGradient>
</defs>
</svg>
