<svg width="36" height="36" viewBox="0 0 36 36" fill="none" xmlns="http://www.w3.org/2000/svg">
<path fill-rule="evenodd" clip-rule="evenodd" d="M21.7043 7.11716C21.8183 7.45736 21.819 7.81627 21.7276 8.1819C21.6173 8.62296 21.358 8.96827 20.9739 9.17447C20.624 9.3623 20.2353 9.39989 19.9005 9.39032C19.2628 9.3721 18.5034 9.16483 17.8591 8.98898C17.8402 8.98381 17.8214 8.97868 17.8027 8.97357C17.0837 8.77749 16.4941 8.62157 16.0567 8.60907C15.856 8.60333 15.7666 8.63235 15.7396 8.64513C15.7366 8.65177 15.7322 8.66346 15.7276 8.6819C15.6906 8.83006 15.7206 8.86679 15.7482 8.90066C15.749 8.90164 15.7498 8.90261 15.7506 8.90358C15.8223 8.99182 15.9745 9.10037 16.274 9.24987C16.3471 9.28636 16.4376 9.32892 16.5368 9.37559C16.7608 9.48104 17.0294 9.60743 17.2429 9.73189C17.5688 9.92194 17.9772 10.2165 18.1878 10.701C18.3194 11.0037 18.3642 11.3564 18.3803 11.652C18.3972 11.9631 18.3856 12.2876 18.3648 12.573C18.3439 12.8607 18.3127 13.1223 18.2869 13.3114C18.274 13.4064 18.2622 13.484 18.2536 13.5387C18.2493 13.5661 18.2458 13.5877 18.2432 13.603L18.2402 13.621L18.2393 13.6263L18.239 13.628C18.239 13.6281 18.2388 13.629 17.5 13.5C16.7612 13.371 16.7612 13.3711 16.7611 13.3712L16.7616 13.3687L16.7636 13.3566L16.7719 13.3052C16.7791 13.2595 16.7893 13.1922 16.8007 13.1088C16.8235 12.9411 16.8507 12.712 16.8688 12.4642C16.8869 12.2142 16.8947 11.9584 16.8825 11.7336C16.8694 11.4933 16.8363 11.3544 16.8122 11.299C16.7958 11.2614 16.7313 11.17 16.4874 11.0277C16.3267 10.9341 16.1727 10.8621 15.9907 10.7771C15.8759 10.7235 15.75 10.6647 15.6042 10.592C15.2887 10.4345 14.8775 10.2076 14.5866 9.84963C14.2522 9.43817 14.123 8.91567 14.2724 8.3181C14.3827 7.87704 14.642 7.53173 15.0261 7.32553C15.376 7.1377 15.7647 7.10012 16.0996 7.10968C16.7372 7.1279 17.4966 7.33517 18.1409 7.51102C18.1598 7.51619 18.1786 7.52132 18.1973 7.52643C18.9163 7.72251 19.5059 7.87843 19.9433 7.89093C20.144 7.89667 20.2334 7.86765 20.2604 7.85487C20.2634 7.84823 20.2678 7.83654 20.2724 7.8181C20.306 7.68373 20.2911 7.62077 20.282 7.59377C20.2713 7.56166 20.2433 7.50726 20.1554 7.4261C19.9715 7.25643 19.7014 7.11347 19.2934 6.89758C19.2275 6.86269 19.1579 6.82589 19.0846 6.78676C18.6132 6.53537 18.0237 6.20261 17.5608 5.6904C17.0727 5.15039 16.75 4.44128 16.75 3.5H18.25C18.25 4.05872 18.4273 4.41211 18.6736 4.6846C18.945 4.98489 19.3243 5.21463 19.7904 5.46324C19.8469 5.49332 19.9064 5.5245 19.9682 5.55685C20.3558 5.75975 20.8313 6.00874 21.1728 6.3239C21.3895 6.52399 21.592 6.78209 21.7043 7.11716Z" fill="#3455AA"/>
<path d="M1.5 21C1.5 16.5817 5.08172 13 9.5 13H25.5C29.9183 13 33.5 16.5817 33.5 21C33.5 25.4183 29.9183 29 25.5 29H9.5C5.08172 29 1.5 25.4183 1.5 21Z" fill="url(#paint0_linear)"/>
<rect x="7.5" y="17" width="2" height="8" rx="1" fill="#FECF32"/>
<rect x="12.5" y="20" width="2" height="8" rx="1" transform="rotate(90 12.5 20)" fill="#FECF32"/>
<rect x="27" y="17" width="2.5" height="2.5" rx="1.25" transform="rotate(90 27 17)" fill="#FECF32"/>
<rect x="21.5" y="20" width="2.5" height="2.5" rx="1.25" fill="#FECF32"/>
<rect x="27" y="23" width="2.5" height="2.5" rx="1.25" transform="rotate(90 27 23)" fill="#FECF32"/>
<rect x="27.5" y="20" width="2.5" height="2.5" rx="1.25" fill="#FECF32"/>
<defs>
<linearGradient id="paint0_linear" x1="0.0142863" y1="12.0286" x2="31.9598" y2="9.50472" gradientUnits="userSpaceOnUse">
<stop stop-color="#E63958"/>
<stop offset="0.0001" stop-color="#E21D0F"/>
<stop offset="1" stop-color="#FF5F54"/>
</linearGradient>
</defs>
</svg>
