<svg width="36" height="36" viewBox="0 0 36 36" fill="none" xmlns="http://www.w3.org/2000/svg">
<path d="M16.1053 23.1785C16.1053 24.1259 16.6957 24.6613 17.5469 24.6613C18.5492 24.6613 19.4416 23.6728 19.4416 22.492C19.4416 21.6133 18.8238 21.0092 18 21.0092C16.9977 21.0092 16.1053 21.9428 16.1053 23.1785Z" fill="url(#paint0_linear)"/>
<path fill-rule="evenodd" clip-rule="evenodd" d="M18 33C23.5228 33 28 28.5228 28 23C28 17.4772 23.5228 13 18 13C12.4772 13 8 17.4772 8 23C8 28.5228 12.4772 33 18 33ZM21.6384 28.0389C20.6224 28.643 19.4966 29 18.1236 29C14.6087 29 12 26.2952 12 23.0137C12 19.7323 14.6499 17 18.0137 17C21.3776 17 24 19.595 24 22.4371C24 24.7437 22.7506 25.8558 21.3364 25.8558C20.2654 25.8558 19.6201 25.4027 19.3043 24.8947C18.8101 25.4027 18.1373 25.8558 17.1762 25.8558C15.8032 25.8558 14.6911 24.8398 14.6911 23.2609C14.6911 21.3112 16.2151 19.8284 17.8078 19.8284C18.7963 19.8284 19.3867 20.2952 19.7437 20.8444L19.7849 20.5973C19.8673 20.1442 20.1144 19.9108 20.4989 19.9108C20.897 19.9108 21.2403 20.254 21.1579 20.7483L20.6362 23.6865C20.595 23.9336 20.5675 24.1533 20.5675 24.2769C20.5675 24.8673 20.9657 25.2517 21.6384 25.2517C22.6133 25.2517 23.4508 24.3181 23.4508 22.4371C23.4508 19.9108 21.1304 17.5217 18.0137 17.5217C14.897 17.5217 12.5492 19.9931 12.5492 23.0137C12.5492 26.0481 14.8696 28.4783 18.1236 28.4783C19.4416 28.4783 20.4027 28.1899 21.3913 27.627C21.4325 27.5995 21.5011 27.5858 21.5423 27.5858C21.6659 27.5858 21.762 27.7094 21.762 27.833C21.762 27.9428 21.7071 28.0114 21.6384 28.0389Z" fill="url(#paint1_linear)"/>
<path d="M18 3C15.1069 3 12.4247 3.94348 10.177 5.72778C9.97376 5.88977 9.94141 6.18469 10.1014 6.38659L10.7543 7.20849C10.9165 7.41272 11.209 7.43884 11.4127 7.27612C13.2947 5.77356 15.6389 4.86951 18.2344 4.86951C20.7039 4.86951 22.9541 5.68445 24.7837 7.05713C24.9867 7.20947 25.274 7.1726 25.432 6.97387L25.8984 6.38659C26.0588 6.18457 26.026 5.88965 25.823 5.72778C23.5753 3.94348 20.8931 3 18 3Z" fill="#3455AA"/>
<path d="M18 6.74865C15.9607 6.74865 14.0454 7.41467 12.4613 8.67516C12.2632 8.83288 12.2367 9.1289 12.3942 9.32726L13.0458 10.1476C13.2102 10.3546 13.5065 10.3771 13.7129 10.2119C14.9546 9.21862 16.524 8.6195 18.2344 8.6195C19.8249 8.6195 21.2977 9.13342 22.4956 10.0037C22.6985 10.1511 22.9818 10.1128 23.1379 9.91625L23.6057 9.32726C23.766 9.12524 23.7333 8.83031 23.5301 8.66845C21.9477 7.41235 20.0356 6.74865 18 6.74865Z" fill="#3455AA"/>
<defs>
<linearGradient id="paint0_linear" x1="7.07143" y1="11.7857" x2="27.1307" y2="10.9933" gradientUnits="userSpaceOnUse">
<stop stop-color="#E63958"/>
<stop offset="0.0001" stop-color="#E21D0F"/>
<stop offset="1" stop-color="#FD4163"/>
</linearGradient>
<linearGradient id="paint1_linear" x1="7.07143" y1="11.7857" x2="27.1307" y2="10.9933" gradientUnits="userSpaceOnUse">
<stop stop-color="#E63958"/>
<stop offset="0.0001" stop-color="#E21D0F"/>
<stop offset="1" stop-color="#FD4163"/>
</linearGradient>
</defs>
</svg>
