<svg width="18" height="16" viewBox="0 0 18 16" fill="none" xmlns="http://www.w3.org/2000/svg">
<path fill-rule="evenodd" clip-rule="evenodd" d="M16.2925 7.00333H3.98916L8.55083 2.46C8.96583 2.05 8.96583 1.38416 8.55083 0.974164C8.13666 0.56333 7.46416 0.56333 7.04916 0.974164L0.67583 7.31083C0.584163 7.40166 0.51833 7.50916 0.466663 7.6225C0.449997 7.6575 0.44083 7.69166 0.429163 7.72666C0.40083 7.81166 0.38333 7.89666 0.377497 7.98666C0.374997 8.02333 0.369997 8.0575 0.371663 8.09416C0.37583 8.20666 0.394997 8.3175 0.436663 8.425C0.439997 8.43416 0.439997 8.44333 0.444163 8.4525C0.444163 8.45416 0.444163 8.455 0.444997 8.45666C0.494997 8.575 0.56833 8.675 0.65333 8.765C0.662497 8.775 0.66583 8.7875 0.674997 8.7975L7.04833 15.1125C7.25583 15.3175 7.5275 15.42 7.79916 15.42C8.07083 15.42 8.34166 15.3175 8.54916 15.1125C8.96416 14.7017 8.96416 14.0367 8.54916 13.6258L3.9875 9.105H16.2908C16.8775 9.105 17.3517 8.635 17.3517 8.05333C17.3533 7.47416 16.8792 7.00333 16.2925 7.00333Z" fill="#2E434D"/>
</svg>
