<svg width="19" height="20" viewBox="0 0 19 20" fill="none" xmlns="http://www.w3.org/2000/svg">
<path d="M7.50691 1.25776C8.64357 0.247409 10.3564 0.247413 11.4931 1.25777L17.4931 6.59109C18.1336 7.16039 18.5 7.9764 18.5 8.83332V17.486C18.5 18.5906 17.6046 19.486 16.5 19.486H12C11.7239 19.486 11.5 19.2622 11.5 18.986V15.486C11.5 14.3815 10.6046 13.486 9.5 13.486C8.39543 13.486 7.5 14.3815 7.5 15.486V18.986C7.5 19.2622 7.27614 19.486 7 19.486H2.5C1.39543 19.486 0.5 18.5906 0.5 17.486L0.500068 8.83321C0.500075 7.9763 0.866522 7.1603 1.50699 6.591L7.50691 1.25776Z" fill="#CA0D00"/>
</svg>
