<svg width="24" height="24" viewBox="0 0 24 24" fill="none" xmlns="http://www.w3.org/2000/svg">
<path fill-rule="evenodd" clip-rule="evenodd" d="M22.0527 18.8067C21.5594 17.4936 20.8031 16.2951 19.8304 15.2845C18.8576 14.274 17.6888 13.4727 16.3955 12.9296C17.0988 12.3523 17.6668 11.6276 18.0593 10.8067C18.4518 9.98571 18.6593 9.08857 18.6669 8.17865C18.6417 6.58396 18.0263 5.05522 16.9395 3.88786C15.8528 2.72051 14.372 1.99742 12.7831 1.85834C12.5237 1.8217 12.2619 1.80539 11.9999 1.80957C11.738 1.80539 11.4761 1.8217 11.2167 1.85834C9.62793 1.99744 8.14708 2.72053 7.06036 3.88788C5.97365 5.05524 5.35822 6.58397 5.333 8.17866C5.3407 9.08858 5.54813 9.98571 5.94063 10.8067C6.33313 11.6276 6.90112 12.3523 7.60448 12.9297C6.31118 13.4727 5.14236 14.274 4.1696 15.2845C3.19685 16.2951 2.44065 17.4936 1.94732 18.8067C1.80802 19.1904 1.76668 19.6029 1.82705 20.0067C1.88741 20.4105 2.04758 20.7929 2.29302 21.1192C2.54726 21.4543 2.87607 21.7256 3.25339 21.9115C3.63071 22.0975 4.04615 22.193 4.46679 22.1904H19.5332C19.9538 22.193 20.3693 22.0975 20.7466 21.9115C21.1239 21.7256 21.4528 21.4543 21.707 21.1192C21.9525 20.7929 22.1126 20.4105 22.173 20.0067C22.2334 19.6029 22.192 19.1904 22.0527 18.8067ZM11.587 4.38276C11.7236 4.36129 11.8618 4.35281 12 4.35743C12.1382 4.35281 12.2765 4.36129 12.4131 4.38276C13.3765 4.45472 14.2782 4.88382 14.9417 5.58598C15.6053 6.28814 15.9827 7.21276 16 8.17866C15.9886 8.69233 15.8761 9.19871 15.6689 9.66886C15.4616 10.139 15.1637 10.5637 14.7922 10.9186C14.4207 11.2735 13.9829 11.5517 13.5038 11.7372C13.0247 11.9228 12.5137 12.0121 12 11.9999C11.4863 12.0121 10.9753 11.9229 10.4961 11.7374C10.017 11.5519 9.57913 11.2737 9.20761 10.9188C8.83608 10.5638 8.53819 10.1391 8.33097 9.66895C8.12376 9.19877 8.01129 8.69235 8 8.17866C8.01738 7.21275 8.3948 6.28814 9.05831 5.58598C9.72183 4.88382 10.6236 4.45472 11.587 4.38276ZM4.46674 19.6425C5.05145 18.1254 6.08692 16.8238 7.43376 15.9129C8.7806 15.002 10.3742 14.5256 11.9999 14.5479C13.6257 14.5258 15.2192 15.0022 16.566 15.913C17.9129 16.8239 18.9483 18.1254 19.5331 19.6425H4.46674Z" fill="#808C92"/>
</svg>
