<svg width="25" height="24" viewBox="0 0 25 24" fill="none" xmlns="http://www.w3.org/2000/svg">
<path fill-rule="evenodd" clip-rule="evenodd" d="M12.3949 9.38889C14.0211 9.38889 15.3394 8.07062 15.3394 6.44444C15.3394 4.81827 14.0211 3.5 12.3949 3.5C10.7688 3.5 9.4505 4.81827 9.4505 6.44444C9.4505 8.07062 10.7688 9.38889 12.3949 9.38889ZM5.37272 17.5667C4.46627 18.7753 5.32864 20.5 6.83938 20.5H17.9505C19.4612 20.5 20.3236 18.7753 19.4172 17.5667C18.0217 15.7061 15.8318 14.6111 13.5061 14.6111H11.2838C8.95812 14.6111 6.76814 15.7061 5.37272 17.5667ZM12.3949 10.8889C14.8495 10.8889 16.8394 8.89904 16.8394 6.44444C16.8394 3.98985 14.8495 2 12.3949 2C9.94034 2 7.9505 3.98985 7.9505 6.44444C7.9505 8.89904 9.94034 10.8889 12.3949 10.8889ZM11.2838 13.1111C8.48599 13.1111 5.85142 14.4284 4.17272 16.6667C2.52463 18.8641 4.09257 22 6.83938 22H17.9505C20.6973 22 22.2653 18.8641 20.6172 16.6667C18.9385 14.4284 16.3039 13.1111 13.5061 13.1111H11.2838Z" fill="#ADADAD"/>
</svg>
