<svg width="25" height="24" viewBox="0 0 25 24" fill="none" xmlns="http://www.w3.org/2000/svg">
<path d="M5.30002 6.24004V17.76C5.30002 18.142 5.45173 18.5082 5.72178 18.7783C5.99183 19.0483 6.3581 19.2 6.74002 19.2H18.26C18.6419 19.2 19.0082 19.0483 19.2783 18.7783C19.5483 18.5082 19.7 18.142 19.7 17.76V6.24004C19.7 5.85813 19.5483 5.49186 19.2783 5.22181C19.0082 4.95176 18.6419 4.80004 18.26 4.80004H6.74002C6.3581 4.80004 5.99183 4.95176 5.72178 5.22181C5.45173 5.49186 5.30002 5.85813 5.30002 6.24004ZM18.74 6.24004V17.76C18.74 17.8873 18.6895 18.0094 18.5994 18.0995C18.5094 18.1895 18.3873 18.24 18.26 18.24H6.74002C6.61271 18.24 6.49062 18.1895 6.4006 18.0995C6.31059 18.0094 6.26002 17.8873 6.26002 17.76V6.24004C6.26002 6.11274 6.31059 5.99065 6.4006 5.90063C6.49062 5.81062 6.61271 5.76004 6.74002 5.76004H18.26C18.3873 5.76004 18.5094 5.81062 18.5994 5.90063C18.6895 5.99065 18.74 6.11274 18.74 6.24004ZM2.42001 7.20004V3.36004C2.42001 2.97813 2.57173 2.61186 2.84178 2.34181C3.11183 2.07176 3.4781 1.92004 3.86001 1.92004H7.70002C7.82732 1.92004 7.94941 1.97062 8.03943 2.06063C8.12945 2.15065 8.18002 2.27274 8.18002 2.40004C8.18002 2.52735 8.12945 2.64944 8.03943 2.73946C7.94941 2.82947 7.82732 2.88004 7.70002 2.88004H3.86001C3.73271 2.88004 3.61062 2.93062 3.5206 3.02063C3.43059 3.11065 3.38001 3.23274 3.38001 3.36004V7.20004C3.38001 7.32735 3.32944 7.44944 3.23943 7.53945C3.14941 7.62947 3.02732 7.68004 2.90001 7.68004C2.77271 7.68004 2.65062 7.62947 2.5606 7.53945C2.47058 7.44944 2.42001 7.32735 2.42001 7.20004ZM22.58 3.36004V7.20004C22.58 7.32735 22.5295 7.44944 22.4394 7.53945C22.3494 7.62947 22.2273 7.68004 22.1 7.68004C21.9727 7.68004 21.8506 7.62947 21.7606 7.53945C21.6706 7.44944 21.62 7.32735 21.62 7.20004V3.36004C21.62 3.23274 21.5695 3.11065 21.4794 3.02063C21.3894 2.93062 21.2673 2.88004 21.14 2.88004H17.3C17.1727 2.88004 17.0506 2.82947 16.9606 2.73946C16.8706 2.64944 16.82 2.52735 16.82 2.40004C16.82 2.27274 16.8706 2.15065 16.9606 2.06063C17.0506 1.97062 17.1727 1.92004 17.3 1.92004H21.14C21.5219 1.92004 21.8882 2.07176 22.1583 2.34181C22.4283 2.61186 22.58 2.97813 22.58 3.36004ZM22.58 16.8V20.64C22.58 21.022 22.4283 21.3882 22.1583 21.6583C21.8882 21.9283 21.5219 22.08 21.14 22.08H17.3C17.1727 22.08 17.0506 22.0295 16.9606 21.9395C16.8706 21.8494 16.82 21.7273 16.82 21.6C16.82 21.4727 16.8706 21.3506 16.9606 21.2606C17.0506 21.1706 17.1727 21.12 17.3 21.12H21.14C21.2673 21.12 21.3894 21.0695 21.4794 20.9795C21.5695 20.8894 21.62 20.7673 21.62 20.64V16.8C21.62 16.6727 21.6706 16.5506 21.7606 16.4606C21.8506 16.3706 21.9727 16.32 22.1 16.32C22.2273 16.32 22.3494 16.3706 22.4394 16.4606C22.5295 16.5506 22.58 16.6727 22.58 16.8ZM8.18002 21.6C8.18002 21.7273 8.12945 21.8494 8.03943 21.9395C7.94941 22.0295 7.82732 22.08 7.70002 22.08H3.86001C3.4781 22.08 3.11183 21.9283 2.84178 21.6583C2.57173 21.3882 2.42001 21.022 2.42001 20.64V16.8C2.42001 16.6727 2.47058 16.5506 2.5606 16.4606C2.65062 16.3706 2.77271 16.32 2.90001 16.32C3.02732 16.32 3.14941 16.3706 3.23943 16.4606C3.32944 16.5506 3.38001 16.6727 3.38001 16.8V20.64C3.38001 20.7673 3.43059 20.8894 3.5206 20.9795C3.61062 21.0695 3.73271 21.12 3.86001 21.12H7.70002C7.82732 21.12 7.94941 21.1706 8.03943 21.2606C8.12945 21.3506 8.18002 21.4727 8.18002 21.6Z" fill="#ADADAD" stroke="#ADADAD" stroke-width="0.5"/>
</svg>
